<svg id="グループ_20" data-name="グループ 20" xmlns="http://www.w3.org/2000/svg" xmlns:xlink="http://www.w3.org/1999/xlink" width="284.056" height="66.862" viewBox="0 0 284.056 66.862">
  <defs>
    <clipPath id="clip-path">
      <rect id="長方形_1" data-name="長方形 1" width="284.056" height="66.862" fill="#fff"/>
    </clipPath>
  </defs>
  <g id="グループ_1" data-name="グループ 1" clip-path="url(#clip-path)">
    <path id="パス_1" data-name="パス 1" d="M544.026,54.92c0-5.484-3.577-9.717-11.148-9.717-10.79,0-17.944,8.644-17.944,19.137q0,.789.061,1.538a4.482,4.482,0,0,1-4.316,4.813l-.118,0c-2.911.059-4.254-1.121-4.61-1.5-.014-.017-.107-.114-.107-.114a3.076,3.076,0,0,0-2.295-.985c-2.027,0-3.338,1.312-6.736,1.312-2.524,0-4.364-.941-4.941-3.545a1.293,1.293,0,0,1,1.256-1.582h8.991c5.484,0,7.69-3.219,7.69-9.36,0-5.484-3.577-9.717-11.148-9.717-10.79,0-17.944,8.644-17.944,19.137q0,.748.054,1.459a4.534,4.534,0,0,1-4.425,4.895h-.128c-2.464,0-3.372-1.326-3.7-2.451a4.248,4.248,0,0,1-.048-2.075l1.748-8.148c1.609-7.571-.656-12.817-8.108-12.817-3.4,0-6.677,1.848-9.24,4.829-1.013-2.5-3.339-4.829-7.929-4.829-3.4,0-6.259,1.55-9.181,4.412a5.349,5.349,0,0,0-5.306-4.233c-2.742,0-5.544,2.027-5.544,6.021a27.128,27.128,0,0,1-.622,5.775l-1.936,8.885a5.908,5.908,0,0,1-5.478,4.686q-.154.006-.314.006A3.837,3.837,0,0,1,417.007,69a3.939,3.939,0,0,1-.446-2.876l3.052-14.307c.835-3.875-1.252-6.439-5.008-6.439-2.981,0-5.425,2.206-6.14,5.485l-3.053,14.367a4.692,4.692,0,0,1-4.291,3.747c-.115.006-.23.009-.346.009-1.908,0-2.742-.954-2.325-2.921l3.1-14.248c.834-3.875-1.192-6.439-5.127-6.439-2.921,0-5.306,2.206-6.022,5.485l-2.981,13.891q-.131.607-.227,1.192a5.636,5.636,0,0,1-5.187,4.8q-.2.01-.41.011A3.825,3.825,0,0,1,378,68.941a4.012,4.012,0,0,1-.418-2.856L382.593,42.4c.775-3.756-1.311-6.558-5.067-6.558a6.9,6.9,0,0,0-6.439,5.663L369.4,49.483a2.347,2.347,0,0,1-2.3,1.86h-6.66a1.852,1.852,0,0,1-1.811-2.238l1.251-5.869c.954-4.531-1.133-7.392-5.127-7.392-3.219,0-5.485,2.086-6.26,5.783l-6.14,29.211c-.775,3.756,1.312,6.558,5.067,6.558,3.219,0,5.723-2.265,6.439-5.663l1.792-8.377a2.448,2.448,0,0,1,2.394-1.936h6.863a1.583,1.583,0,0,1,1.55,1.907l-1.569,7.512c-.775,3.756,1.312,6.558,5.067,6.558a6.25,6.25,0,0,0,5.07-2.579,1.579,1.579,0,0,1,1.93-.487,12.987,12.987,0,0,0,10.385.541,1.582,1.582,0,0,1,1.713.4c1.438,1.486,3.62,2.308,6.595,2.308a13.142,13.142,0,0,0,7.9-2.867,1.494,1.494,0,0,1,2.165.429,5.026,5.026,0,0,0,4.478,2.259,5.775,5.775,0,0,0,4.845-2.287,1.308,1.308,0,0,1,1.569-.481,13.048,13.048,0,0,0,8.336.681,1.311,1.311,0,0,1,1.316.443,5.553,5.553,0,0,0,4.381,1.644c2.862,0,5.187-2.206,5.9-5.484l3.274-15.4a3.228,3.228,0,0,1,2.373-2.469,6.321,6.321,0,0,1,1.507-.193c1.55,0,2.5.834,2.087,2.862l-3.041,14.248c-.835,3.994,1.252,6.438,5.246,6.438,2.742,0,5.186-2.086,5.9-5.425l3.278-15.424a3.272,3.272,0,0,1,2.392-2.5,6.351,6.351,0,0,1,1.543-.2c1.788,0,2.385,1.073,2.027,2.862l-3.04,14.248c-.835,3.994,1.252,6.438,5.246,6.438A5.635,5.635,0,0,0,470,74.824a1.416,1.416,0,0,1,1.741-.483,12.81,12.81,0,0,0,11.246.014,1.611,1.611,0,0,1,1.789.227,13.9,13.9,0,0,0,9.416,3.11,23.954,23.954,0,0,0,9.6-1.789,5.425,5.425,0,0,0,1.614-1.016,1.286,1.286,0,0,1,1.352-.263,12.7,12.7,0,0,0,10.564-.265,1.5,1.5,0,0,1,1.662.211,13.893,13.893,0,0,0,9.427,3.122A23.953,23.953,0,0,0,538,75.9a4.563,4.563,0,0,0,3.04-4.233,3.376,3.376,0,0,0-3.279-3.577c-2.027,0-3.339,1.312-6.737,1.312-2.524,0-4.365-.941-4.941-3.546a1.293,1.293,0,0,1,1.255-1.581h8.992c5.484,0,7.69-3.219,7.69-9.36m-46.439-1.908c2.539,0,3.413,1.86,2.314,4.736a1.452,1.452,0,0,1-1.356.928h-4.889a.994.994,0,0,1-.918-1.367c1.1-2.774,2.885-4.3,4.848-4.3m35.176,5.664h-4.891a.992.992,0,0,1-.916-1.365c1.1-2.775,2.885-4.3,4.849-4.3,2.538,0,3.413,1.859,2.314,4.735a1.453,1.453,0,0,1-1.357.929" transform="translate(-259.969 -27.231)" fill="#fff"/>
    <path id="パス_2" data-name="パス 2" d="M64.115,180.174a26.185,26.185,0,0,0,7.026-1.1c4.359-1.613,8.651-4.626,6.819-8.206-1.189-2.322-4.865-2.182-7.166-1.454a17.757,17.757,0,0,0-8.92,6.829,3.264,3.264,0,0,1-1.232-2.266c-.149-1.367.537-2.792,1.884-4.382.8-.947,4.273-4.647,8.213-8.813a.57.57,0,0,0-.242-.934,17.458,17.458,0,0,0-1.746-.461,1,1,0,0,0-.928.291l-4.052,4.279c-1.74,1.838-4.607,4.507-5.7,6.846a7.106,7.106,0,0,0,2.465,9.283s-.782,7.106,7.575,7.812,24.227-8.891,24.227-8.891-29.174,11.427-28.225,1.165m5.169-7.044c2.225-1.3,4.985-2.219,5.616-.894.432.908-.1,2.206-3.054,3.53a25.421,25.421,0,0,1-7.137,1.4,27.028,27.028,0,0,1,4.574-4.039" transform="translate(-43.518 -121.074)" fill="#fff"/>
    <path id="パス_4" data-name="パス 4" d="M104.117,17.274C94.735,9.078,78.664,6.956,78.664,6.956L95.612,6.78c1.757-.018,4.55.926,5.64,2.192,1.774,2.06,2.842,5.762,3.3,7.694l-.156.176a1.774,1.774,0,0,0-.283.431" transform="translate(-59.762 -5.151)" fill="#fff"/>
    <path id="パス_5" data-name="パス 5" d="M184.385,22.316l2.269-2.553a2,2,0,0,1,2.263-.538,2.037,2.037,0,0,1,1.193,1.64.664.664,0,0,0,.8.578,17.367,17.367,0,0,1,3.024-.381l-12.908-6.6s2.29,1.945,3.354,7.851" transform="translate(-137.532 -10.989)" fill="#fff"/>
    <path id="パス_6" data-name="パス 6" d="M209.207,53.421a25.969,25.969,0,0,1,14.682,8.237l-6.8-10.425a1.762,1.762,0,0,0-1.618-.776,14.3,14.3,0,0,0-4.631,1.132Z" transform="translate(-158.938 -38.329)" fill="#fff"/>
    <path id="パス_7" data-name="パス 7" d="M95.575,72.148A347.853,347.853,0,0,0,66.468,96.059s13.626-.853,24.064,12.131c0,0,5.121-19.048,5.152-35.966-.037-.024-.074-.049-.109-.076" transform="translate(-50.497 -54.812)" fill="#fff"/>
    <path id="パス_8" data-name="パス 8" d="M226.7,87.828s-4.029-11.995-20.227-16.494a1.827,1.827,0,0,1-.4.285c2.587,2.573,13.47,14.144,16.279,29.295,0,0-.9-5.132,4.344-13.086" transform="translate(-156.561 -54.194)" fill="#fff"/>
    <path id="パス_9" data-name="パス 9" d="M183.286,74.2c-.038,0-.075,0-.113,0,.174,1.653,1.2,14.026-4.5,35.669,0,0,11.083-7.2,21.226-3.429,0,0-1.249-14.176-16.579-32.237h-.031" transform="translate(-135.739 -56.365)" fill="#fff"/>
    <path id="パス_10" data-name="パス 10" d="M59.426,22.252A1.9,1.9,0,0,1,59.409,22,74.157,74.157,0,0,0,28.241,10.475s.3,7.482-8.751,14.443c0,0,14.7-6.367,39.936-2.666" transform="translate(-14.807 -7.958)" fill="#fff"/>
    <path id="パス_11" data-name="パス 11" d="M56.527,65.893S36.491,62.934,17.9,69.168c0,0,10.407,6.032,9.488,20.3,0,0,9.559-11.129,29.144-23.575" transform="translate(-13.596 -49.527)" fill="#fff"/>
    <path id="パス_12" data-name="パス 12" d="M191.234,47.312a.949.949,0,0,0,1.218.713,1.09,1.09,0,0,0,.648-.355l3.028-3.389a1.082,1.082,0,0,0,.217-1.1,1.051,1.051,0,0,0-.572-.619,1.08,1.08,0,0,0-1.216.3l-3.075,3.459a1.094,1.094,0,0,0-.248,1" transform="translate(-145.258 -32.273)" fill="#fff"/>
    <path id="パス_13" data-name="パス 13" d="M208.628,163.615c-.089-.071.071.3.1.421.759,2.005-.6,4.253-2.838,3.889a3.95,3.95,0,0,0-.934-.131,4.907,4.907,0,0,0-1.1.339c-4.15,1.2-6.041-3.637-3.306-6.451a6.192,6.192,0,0,0-3.4,3.572c-1.477,3.988,2.953,6.843,6.792,4.825a3.038,3.038,0,0,1,1.19-.527,2.316,2.316,0,0,1,.91.21,3.043,3.043,0,0,0,3.712-1.664,4.778,4.778,0,0,0-1.123-4.483" transform="translate(-149.554 -122.833)" fill="#fff"/>
    <path id="パス_14" data-name="パス 14" d="M214.012,160.122a1.407,1.407,0,0,1,.4-.016c.207.026.416.136.607.075a.32.32,0,0,0,.176-.468l0-.006a.865.865,0,0,0-1.46.155c-.115.214.1.288.281.26" transform="translate(-162.351 -121.074)" fill="#fff"/>
    <path id="パス_15" data-name="パス 15" d="M241,166.442a2.379,2.379,0,0,1,.311.1,2.222,2.222,0,0,1,.209.126c.064.04.166.072.2-.014a.661.661,0,0,0-.378-.651.505.505,0,0,0-.434.022l0,0a.225.225,0,0,0,.093.413" transform="translate(-182.938 -126.088)" fill="#fff"/>
    <path id="パス_16" data-name="パス 16" d="M216.59,174.132a1.008,1.008,0,0,0,1.635-.107,1.465,1.465,0,0,0,.153-1.28,1.051,1.051,0,0,0-1.269-.665h0a1.3,1.3,0,0,0-.516,2.051" transform="translate(-164.316 -130.697)" fill="#fff"/>
    <path id="パス_17" data-name="パス 17" d="M234.75,174.019a1.285,1.285,0,0,0,.024-1.131.923.923,0,0,0-1.165-.472l0,0a1.144,1.144,0,0,0-.274,1.836.885.885,0,0,0,1.419-.235" transform="translate(-177.004 -130.935)" fill="#fff"/>
  </g>
</svg>
