<svg id="グループ_2" data-name="グループ 2" xmlns="http://www.w3.org/2000/svg" xmlns:xlink="http://www.w3.org/1999/xlink" width="91.28" height="21.486" viewBox="0 0 91.28 21.486">
  <defs>
    <clipPath id="clip-path">
      <rect id="長方形_1" data-name="長方形 1" width="91.28" height="21.486" fill="none"/>
    </clipPath>
  </defs>
  <g id="グループ_1" data-name="グループ 1" clip-path="url(#clip-path)">
    <path id="パス_1" data-name="パス 1" d="M407.051,41.973c0-1.762-1.149-3.123-3.583-3.123C400,38.851,397.7,41.628,397.7,45q0,.254.019.494a1.44,1.44,0,0,1-1.387,1.547H396.3a1.914,1.914,0,0,1-1.481-.482l-.034-.037a.988.988,0,0,0-.737-.316c-.651,0-1.073.422-2.165.422a1.414,1.414,0,0,1-1.588-1.139.416.416,0,0,1,.4-.508h2.889c1.762,0,2.471-1.034,2.471-3.008,0-1.762-1.149-3.123-3.582-3.123-3.467,0-5.766,2.778-5.766,6.149q0,.24.017.469a1.457,1.457,0,0,1-1.422,1.573h-.041a1.093,1.093,0,0,1-1.188-.788,1.365,1.365,0,0,1-.016-.667l.562-2.618c.517-2.433-.211-4.119-2.605-4.119a4.02,4.02,0,0,0-2.969,1.552,2.512,2.512,0,0,0-2.548-1.552,4.144,4.144,0,0,0-2.95,1.418,1.719,1.719,0,0,0-1.7-1.36,1.794,1.794,0,0,0-1.782,1.935,8.715,8.715,0,0,1-.2,1.856l-.622,2.855a1.9,1.9,0,0,1-1.76,1.506l-.1,0a1.233,1.233,0,0,1-1.142-.563,1.266,1.266,0,0,1-.143-.924l.981-4.6a1.549,1.549,0,0,0-1.609-2.069,2.072,2.072,0,0,0-1.973,1.762l-.981,4.617a1.508,1.508,0,0,1-1.379,1.2c-.037,0-.074,0-.111,0-.613,0-.881-.307-.747-.939l1-4.579a1.551,1.551,0,0,0-1.647-2.069,2.049,2.049,0,0,0-1.935,1.762l-.958,4.464q-.042.2-.073.383a1.811,1.811,0,0,1-1.667,1.541q-.064,0-.132,0a1.229,1.229,0,0,1-1.154-.583,1.289,1.289,0,0,1-.134-.918l1.609-7.611a1.6,1.6,0,0,0-1.628-2.107,2.219,2.219,0,0,0-2.069,1.82l-.544,2.563a.754.754,0,0,1-.738.6h-2.14a.6.6,0,0,1-.582-.719l.4-1.886c.307-1.456-.364-2.375-1.648-2.375a2.037,2.037,0,0,0-2.011,1.858l-1.973,9.387a1.605,1.605,0,0,0,1.628,2.107,2.125,2.125,0,0,0,2.069-1.82l.576-2.692a.787.787,0,0,1,.769-.622h2.205a.509.509,0,0,1,.5.613l-.5,2.414a1.6,1.6,0,0,0,1.628,2.107,2.008,2.008,0,0,0,1.629-.829.507.507,0,0,1,.62-.156,4.173,4.173,0,0,0,3.337.174.508.508,0,0,1,.551.127,2.826,2.826,0,0,0,2.119.742,4.223,4.223,0,0,0,2.54-.921.48.48,0,0,1,.7.138,1.615,1.615,0,0,0,1.439.726,1.856,1.856,0,0,0,1.557-.735.42.42,0,0,1,.5-.154,4.193,4.193,0,0,0,2.679.219.421.421,0,0,1,.423.142,1.785,1.785,0,0,0,1.408.528,2.027,2.027,0,0,0,1.9-1.762l1.052-4.949a1.037,1.037,0,0,1,.763-.793,2.03,2.03,0,0,1,.484-.062c.5,0,.8.268.671.92l-.977,4.579a1.557,1.557,0,0,0,1.686,2.069,2.021,2.021,0,0,0,1.9-1.743l1.053-4.956a1.052,1.052,0,0,1,.769-.8,2.041,2.041,0,0,1,.5-.065c.575,0,.766.345.651.92l-.977,4.579a1.557,1.557,0,0,0,1.686,2.069,1.811,1.811,0,0,0,1.5-.826.455.455,0,0,1,.56-.155,4.116,4.116,0,0,0,3.614,0,.518.518,0,0,1,.575.073,4.467,4.467,0,0,0,3.026,1,7.7,7.7,0,0,0,3.084-.575,1.743,1.743,0,0,0,.519-.326.413.413,0,0,1,.435-.085,4.081,4.081,0,0,0,3.395-.085.481.481,0,0,1,.534.068,4.464,4.464,0,0,0,3.029,1,7.7,7.7,0,0,0,3.084-.575,1.466,1.466,0,0,0,.977-1.36,1.085,1.085,0,0,0-1.054-1.149c-.651,0-1.073.422-2.165.422a1.414,1.414,0,0,1-1.588-1.14.415.415,0,0,1,.4-.508h2.89c1.762,0,2.471-1.034,2.471-3.008m-14.923-.613c.816,0,1.1.6.744,1.522a.466.466,0,0,1-.436.3h-1.571a.32.32,0,0,1-.295-.439c.354-.891.927-1.381,1.558-1.381m11.3,1.82h-1.572a.319.319,0,0,1-.294-.439c.354-.892.927-1.381,1.558-1.381.816,0,1.1.6.744,1.522a.467.467,0,0,1-.436.3" transform="translate(-315.77 -33.075)" fill="#3d477f"/>
    <path id="パス_2" data-name="パス 2" d="M59.478,166.053a8.414,8.414,0,0,0,2.258-.352c1.4-.518,2.78-1.487,2.191-2.637-.382-.746-1.563-.7-2.3-.467a5.706,5.706,0,0,0-2.866,2.194,1.049,1.049,0,0,1-.4-.728,1.945,1.945,0,0,1,.605-1.408c.258-.3,1.373-1.493,2.639-2.832a.183.183,0,0,0-.078-.3,5.607,5.607,0,0,0-.561-.148.32.32,0,0,0-.3.093l-1.3,1.375a10.437,10.437,0,0,0-1.832,2.2,2.283,2.283,0,0,0,.792,2.983,2.325,2.325,0,0,0,2.434,2.51c2.685.227,7.785-2.857,7.785-2.857s-9.375,3.672-9.07.374m1.661-2.263c.715-.418,1.6-.713,1.8-.287.139.292-.032.709-.981,1.134a8.169,8.169,0,0,1-2.293.451,8.684,8.684,0,0,1,1.47-1.3" transform="translate(-52.859 -147.062)" fill="#3d477f"/>
    <path id="パス_3" data-name="パス 3" d="M0,5.9a8.044,8.044,0,0,1,3.689,7.845,11.309,11.309,0,0,1,9.408,4.6S17.2,15.414,21.4,16.787a11.279,11.279,0,0,1,1.851-6.209L19.238,3.85a2.5,2.5,0,0,0-1.02-.939L13.17.349A3.273,3.273,0,0,0,11.612,0L3.689.195S3.945,2.791,0,5.9" transform="translate(0 0)" fill="#3d477f"/>
    <path id="パス_4" data-name="パス 4" d="M86.843,10.152c-3.015-2.634-8.179-3.315-8.179-3.315L84.11,6.78a2.812,2.812,0,0,1,1.812.7,6.56,6.56,0,0,1,1.062,2.473l-.05.057a.57.57,0,0,0-.091.139" transform="translate(-72.59 -6.256)" fill="#e98f46"/>
    <path id="パス_5" data-name="パス 5" d="M182.109,16.987l.729-.82a.641.641,0,0,1,.727-.173.655.655,0,0,1,.383.527.213.213,0,0,0,.258.186,5.581,5.581,0,0,1,.972-.122l-4.148-2.12a4.421,4.421,0,0,1,1.078,2.523" transform="translate(-167.053 -13.347)" fill="#e85a5a"/>
    <path id="パス_6" data-name="パス 6" d="M209.207,51.406a8.345,8.345,0,0,1,4.718,2.647l-2.184-3.35a.566.566,0,0,0-.52-.249,4.6,4.6,0,0,0-1.488.364Z" transform="translate(-193.053 -46.556)" fill="#e487b4"/>
    <path id="パス_7" data-name="パス 7" d="M75.822,72.148a111.778,111.778,0,0,0-9.354,7.684,9.858,9.858,0,0,1,7.733,3.9,52.753,52.753,0,0,0,1.656-11.558l-.035-.024" transform="translate(-61.336 -66.577)" fill="#4bb1e5"/>
    <path id="パス_8" data-name="パス 8" d="M212.705,76.634s-1.295-3.854-6.5-5.3a.586.586,0,0,1-.128.092,19.484,19.484,0,0,1,5.231,9.414s-.29-1.649,1.4-4.205" transform="translate(-190.166 -65.826)" fill="#8460a5"/>
    <path id="パス_9" data-name="パス 9" d="M180.153,74.193h-.036c.056.531.385,4.507-1.447,11.462,0,0,3.562-2.314,6.821-1.1,0,0-.4-4.556-5.327-10.359h-.01" transform="translate(-164.874 -68.463)" fill="#3176bc"/>
    <path id="パス_10" data-name="パス 10" d="M32.323,14.259a.611.611,0,0,1-.005-.081,23.83,23.83,0,0,0-10.016-3.7s.1,2.4-2.812,4.641c0,0,4.725-2.046,12.833-.857" transform="translate(-17.985 -9.666)" fill="#f4ed5a"/>
    <path id="パス_11" data-name="パス 11" d="M30.31,65.417A30.342,30.342,0,0,0,17.9,66.469a7.025,7.025,0,0,1,3.049,6.523,45.115,45.115,0,0,1,9.365-7.576" transform="translate(-16.514 -60.158)" fill="#52b677"/>
    <path id="パス_12" data-name="パス 12" d="M191.211,44.033a.3.3,0,0,0,.391.229.35.35,0,0,0,.208-.114l.973-1.089a.348.348,0,0,0,.07-.355.338.338,0,0,0-.184-.2.347.347,0,0,0-.391.1l-.988,1.112a.352.352,0,0,0-.08.32" transform="translate(-176.437 -39.2)" fill="#9598a5"/>
    <path id="パス_13" data-name="パス 13" d="M200.638,162.3c-.028-.023.023.1.032.135a.88.88,0,0,1-.912,1.25,1.268,1.268,0,0,0-.3-.042,1.574,1.574,0,0,0-.355.109c-1.334.386-1.941-1.169-1.062-2.073a1.99,1.99,0,0,0-1.092,1.148c-.475,1.282.949,2.2,2.183,1.551a.976.976,0,0,1,.382-.169.744.744,0,0,1,.293.067.978.978,0,0,0,1.193-.535,1.535,1.535,0,0,0-.361-1.441" transform="translate(-181.655 -149.199)" fill="#3d477f"/>
    <path id="パス_14" data-name="パス 14" d="M213.8,159.61a.451.451,0,0,1,.128-.005c.067.008.134.044.195.024a.1.1,0,0,0,.056-.15v0a.278.278,0,0,0-.469.05c-.037.069.033.093.09.084" transform="translate(-197.198 -147.062)" fill="#3d477f"/>
    <path id="パス_15" data-name="パス 15" d="M240.862,166.12a.764.764,0,0,1,.1.033.706.706,0,0,1,.067.041c.021.013.053.023.065,0a.212.212,0,0,0-.122-.209.162.162,0,0,0-.139.007h0a.072.072,0,0,0,.03.133" transform="translate(-222.205 -153.152)" fill="#3d477f"/>
    <path id="パス_16" data-name="パス 16" d="M216.384,172.708a.324.324,0,0,0,.526-.035.471.471,0,0,0,.049-.411.338.338,0,0,0-.408-.214h0a.419.419,0,0,0-.166.659" transform="translate(-199.586 -158.75)" fill="#3d477f"/>
    <path id="パス_17" data-name="パス 17" d="M233.554,172.884a.413.413,0,0,0,.008-.364.3.3,0,0,0-.374-.152h0a.368.368,0,0,0-.088.59.284.284,0,0,0,.456-.075" transform="translate(-214.997 -159.039)" fill="#3d477f"/>
  </g>
</svg>
