<svg xmlns="http://www.w3.org/2000/svg" xmlns:xlink="http://www.w3.org/1999/xlink" width="163.04" height="267.184" viewBox="0 0 163.04 267.184">
  <defs>
    <clipPath id="clip-path">
      <rect id="長方形_68" data-name="長方形 68" width="259.478" height="71.008" transform="translate(0 0)" fill="none"/>
    </clipPath>
  </defs>
  <g id="グループ_85" data-name="グループ 85" transform="translate(65.838) rotate(68)">
    <g id="グループ_84" data-name="グループ 84" clip-path="url(#clip-path)">
      <path id="パス_128" data-name="パス 128" d="M223.7,65.7V5.312A5.311,5.311,0,0,1,229.01,0h1.321a5.312,5.312,0,0,1,5.312,5.312V65.7a5.312,5.312,0,0,1-5.312,5.311H229.01A5.311,5.311,0,0,1,223.7,65.7" fill="#e8e8e8"/>
      <path id="パス_129" data-name="パス 129" d="M177.716,51.634V19.374a13.305,13.305,0,0,1,13.3-13.305h32.764v58.87H191.021a13.305,13.305,0,0,1-13.3-13.305" fill="#c9c9c9"/>
      <path id="パス_130" data-name="パス 130" d="M235.643,23.01V15.894h20.671a3.165,3.165,0,0,1,3.164,3.164v.788a3.165,3.165,0,0,1-3.164,3.164Z" fill="#fff87b"/>
      <path id="パス_131" data-name="パス 131" d="M235.643,55.114V48h20.671a3.165,3.165,0,0,1,3.164,3.164v.788a3.165,3.165,0,0,1-3.164,3.164Z" fill="#fff87b"/>
      <path id="パス_132" data-name="パス 132" d="M146.855,25.479c-19.89-2.183-42.435-4.658-69.38-3.538-11.513.478-23.977,3.328-37.048,8.468a196.923,196.923,0,0,0-32,16.385c-2.979,1.862-5.8,3.713-8.43,5.512V62.382c3.794-2.722,8.1-5.653,12.805-8.594,16.34-10.215,40.885-22.6,65.01-23.6,26.325-1.093,48.54,1.345,68.14,3.5,8.877.973,23.351,1.95,31.761,2.5V28.73c-7.9-.535-21.994-2.279-30.861-3.251" fill="#e8e8e8"/>
    </g>
  </g>
</svg>
