<svg xmlns="http://www.w3.org/2000/svg" xmlns:xlink="http://www.w3.org/1999/xlink" width="172.412" height="239.682" viewBox="0 0 172.412 239.682">
  <defs>
    <clipPath id="clip-path">
      <rect id="長方形_69" data-name="長方形 69" width="233.701" height="71.008" transform="translate(0 0)" fill="none"/>
    </clipPath>
  </defs>
  <g id="グループ_87" data-name="グループ 87" transform="matrix(-0.469, 0.883, -0.883, -0.469, 172.413, 33.336)">
    <g id="グループ_86" data-name="グループ 86" clip-path="url(#clip-path)">
      <path id="パス_133" data-name="パス 133" d="M11.944,65.7V5.312A5.311,5.311,0,0,0,6.634,0H5.312A5.312,5.312,0,0,0,0,5.312V65.7a5.311,5.311,0,0,0,5.312,5.311H6.634a5.311,5.311,0,0,0,5.31-5.311" fill="#e8e8e8"/>
      <path id="パス_134" data-name="パス 134" d="M57.927,51.634V19.374a13.305,13.305,0,0,0-13.3-13.305H11.857v58.87H44.622a13.305,13.305,0,0,0,13.3-13.305" fill="#c9c9c9"/>
      <path id="パス_135" data-name="パス 135" d="M233.7,27.353c-1.462-.692-2.693-1.367-3.945-2.022a139.842,139.842,0,0,0-36.725-12.71c-22.653-4.637-43.248-5.567-62.963-2.84C113.061,12.136,99.7,16.749,87.916,20.819c-11.553,3.99-20.885,7.21-29.988,7.06v8.25c10.53.135,20.875-3.438,32.68-7.513,23.123-7.985,51.9-17.92,100.768-7.912C209.75,24.467,223.47,30.686,233.7,37Z" fill="#e8e8e8"/>
    </g>
  </g>
</svg>
