<svg xmlns="http://www.w3.org/2000/svg" xmlns:xlink="http://www.w3.org/1999/xlink" width="153.809" height="185.732" viewBox="0 0 153.809 185.732">
  <defs>
    <clipPath id="clip-path">
      <rect id="長方形_52" data-name="長方形 52" width="127.751" height="119.075" fill="none"/>
    </clipPath>
    <clipPath id="clip-path-2">
      <rect id="長方形_53" data-name="長方形 53" width="18.515" height="19.256" transform="translate(0 0)" fill="none"/>
    </clipPath>
  </defs>
  <g id="グループ_89" data-name="グループ 89" transform="translate(-168.191 -2022.268)">
    <g id="グループ_61" data-name="グループ 61" transform="translate(106 909)">
      <g id="グループ_56" data-name="グループ 56" transform="translate(88.249 1148.925)">
        <g id="グループ_55" data-name="グループ 55" clip-path="url(#clip-path)">
          <path id="パス_119" data-name="パス 119" d="M39.805,44.681A19.876,19.876,0,1,1,38.651,16.6a19.876,19.876,0,0,1,1.154,28.085" fill="#7fb8db"/>
          <path id="パス_120" data-name="パス 120" d="M32.163,37.211,34.9,20.669,18.637,24.753l3.829,3.526L13.688,37.81l5.868,5.4,8.778-9.531Z" fill="#fff"/>
        </g>
      </g>
      <path id="パス_121" data-name="パス 121" d="M41.8,52.614S13.923,66.448,6.821,99.29" transform="matrix(0.839, 0.545, -0.545, 0.839, 182.356, 1068.084)" fill="none" stroke="#fff" stroke-linecap="round" stroke-miterlimit="10" stroke-width="3" stroke-dasharray="5 10"/>
      <path id="パス_122" data-name="パス 122" d="M34.981,46.676S7.1,32.842,0,0" transform="matrix(0.766, 0.643, -0.643, 0.766, 94.852, 1212.259)" fill="none" stroke="#fff" stroke-linecap="round" stroke-miterlimit="10" stroke-width="3" stroke-dasharray="5 10"/>
      <g id="グループ_58" data-name="グループ 58" transform="translate(91 1279.744)">
        <g id="グループ_57" data-name="グループ 57" clip-path="url(#clip-path-2)">
          <path id="パス_123" data-name="パス 123" d="M16.034,15.929a14.763,14.763,0,0,1-2.132-.211,3.1,3.1,0,0,0-3.164.972c-.418.44-.873.847-1.331,1.248a13.407,13.407,0,0,1-1.3,1.048A1.179,1.179,0,0,1,6.2,18.307c-.08-.238-.092-.5-.151-.744-.271-1.133-.572-2.26-.811-3.4a1.773,1.773,0,0,0-.945-1.291c-.844-.462-1.677-.946-2.505-1.437a10.954,10.954,0,0,1-1.4-.912.992.992,0,0,1-.1-1.487,4.5,4.5,0,0,1,.929-.771c.941-.6,1.881-1.2,2.863-1.727A2.12,2.12,0,0,0,5.261,4.891c.149-.9.351-1.788.556-2.676A7.7,7.7,0,0,1,6.25.765,1.132,1.132,0,0,1,8.009.227,12.3,12.3,0,0,1,9.323,1.255q1.161.979,2.3,1.986a1.161,1.161,0,0,0,1.114.317c1.236-.309,2.514-.213,3.769-.413,1.823-.292,2.444.632,1.694,2.317-.452,1.018-.874,2.052-1.369,3.049a2.219,2.219,0,0,0-.031,2.038c.459,1.015.885,2.046,1.326,3.069.1.233.22.459.3.7a1.129,1.129,0,0,1-1.044,1.6c-.452.045-.912.008-1.349.008" fill="#eb8813"/>
          <path id="パス_124" data-name="パス 124" d="M6.786,10.669a11.508,11.508,0,0,1,1.66-3.7A1.75,1.75,0,0,1,9.027,6.5a.945.945,0,0,1,1.349.915,2.211,2.211,0,0,1-.13.589c-.357,1-.717,2-1.092,2.989a1.738,1.738,0,0,1-.626.838,1.106,1.106,0,0,1-1.742-1.164" fill="#fff"/>
          <path id="パス_125" data-name="パス 125" d="M13.27,10.136a3.09,3.09,0,0,1-.45,1.357,1.08,1.08,0,0,1-1.308.483,1.189,1.189,0,0,1-.651-1.251,3.252,3.252,0,0,1,.694-1.5A.862.862,0,0,1,12.5,8.9a.962.962,0,0,1,.708.719,3.335,3.335,0,0,1,.065.521" fill="#fff"/>
        </g>
      </g>
    </g>
  </g>
</svg>
