<svg id="グループ_52" data-name="グループ 52" xmlns="http://www.w3.org/2000/svg" xmlns:xlink="http://www.w3.org/1999/xlink" width="104.073" height="134.525" viewBox="0 0 104.073 134.525">
  <defs>
    <clipPath id="clip-path">
      <rect id="長方形_50" data-name="長方形 50" width="104.073" height="134.525" fill="none"/>
    </clipPath>
    <clipPath id="clip-path-3">
      <rect id="長方形_46" data-name="長方形 46" width="2.412" height="1.3" fill="none"/>
    </clipPath>
    <clipPath id="clip-path-4">
      <rect id="長方形_47" data-name="長方形 47" width="61.769" height="49.844" fill="none"/>
    </clipPath>
    <clipPath id="clip-path-5">
      <rect id="長方形_48" data-name="長方形 48" width="47.13" height="55.518" fill="none"/>
    </clipPath>
  </defs>
  <g id="グループ_51" data-name="グループ 51" clip-path="url(#clip-path)">
    <g id="グループ_50" data-name="グループ 50">
      <g id="グループ_49" data-name="グループ 49" clip-path="url(#clip-path)">
        <path id="パス_44" data-name="パス 44" d="M49.754,222.392a21.356,21.356,0,0,0-11.71,13.47,21.034,21.034,0,0,0,10.929,24.319c.249.121.468-.251.218-.373a20.945,20.945,0,0,1-10.977-13.816,20.192,20.192,0,0,1,3.894-17.086,20.4,20.4,0,0,1,7.864-6.14c.255-.111.035-.483-.218-.373" transform="translate(-24.974 -149.054)" fill="#421b36"/>
        <path id="パス_45" data-name="パス 45" d="M135.389,239.2a33.806,33.806,0,1,1-30.552-36.773A33.806,33.806,0,0,1,135.389,239.2" transform="translate(-45.525 -135.589)" fill="#a0d2f4"/>
        <path id="パス_46" data-name="パス 46" d="M87.282,240.831a4.76,4.76,0,0,1,3.127,2.623,20.362,20.362,0,0,0,2.117,3.647,6.546,6.546,0,0,0,7.695,1.2,9.19,9.19,0,0,0,4.58-6.663,15.761,15.761,0,0,0-1.062-8.214c-.933-2.454-2.262-4.777-2.811-7.345s-.133-5.575,1.9-7.242A33.536,33.536,0,0,0,87.041,240.65" transform="translate(-58.343 -146.683)" fill="#8380ff"/>
        <path id="パス_47" data-name="パス 47" d="M184.24,208.32c-2.227-.242-4.222,1.647-4.943,3.767s-.5,4.426-.391,6.662.057,4.611-1.113,6.52c-1.117,1.822-3.112,2.975-4.21,4.808-1.734,2.895-.8,6.583.174,9.812.6,2,1.391,4.212,3.278,5.1,2.09.984,4.584-.149,6.323-1.669a15.107,15.107,0,0,0,4.576-7.261,8.719,8.719,0,0,1,1.37-3.476,5.108,5.108,0,0,1,4.7-1.294c1.678.264,3.263.959,4.936,1.257,1.571.28,3.554-.026,4.153-1.506a4.008,4.008,0,0,0-.189-2.711A33.47,33.47,0,0,0,184,208.048" transform="translate(-115.701 -139.453)" fill="#8380ff"/>
        <path id="パス_48" data-name="パス 48" d="M112.06,353.162c3.8-.348,2.183-5.957,1.59-8.882s-2.642-5.759-5.566-6.358c-1.86-.381-3.764.167-5.642.444s-4.02.193-5.366-1.146c-2.529-2.514-.737-7.79-3.765-9.672-2.311-1.437-5.254.552-6.9,2.717s-3.227,4.854-5.909,5.31A30.427,30.427,0,0,0,92.016,348.26a30.9,30.9,0,0,0,20.044,4.9" transform="translate(-53.959 -219.225)" fill="#8380ff"/>
        <path id="パス_49" data-name="パス 49" d="M233.171,326.838s-3.226,3.572-2.013,5.678,7.333,3.141,8.344-1.457,4.174-4.559.629-6.812-6.2.316-6.96,2.591" transform="translate(-154.761 -216.756)" fill="#8380ff"/>
        <path id="パス_50" data-name="パス 50" d="M134.752,238.77a32.4,32.4,0,0,1-7.844,18.84,33.714,33.714,0,0,1-53.43-3.135,33.528,33.528,0,0,1,53.99-39.705,34.692,34.692,0,0,1,7.277,18.812,36.238,36.238,0,0,1,.008,5.188c-.019.278.413.276.432,0a35.547,35.547,0,0,0-4.64-20.232,33.944,33.944,0,1,0-25.379,50.93,34.568,34.568,0,0,0,18.618-8.137,32.608,32.608,0,0,0,11.4-22.562c.02-.277-.412-.276-.432,0" transform="translate(-45.105 -135.157)" fill="#421b36"/>
        <path id="パス_51" data-name="パス 51" d="M212.936,23.3c1.757.294,3.33-1.677,3.007-3.429a4.324,4.324,0,0,0-3.826-3.2c-1.179-.138-2.452.083-3.5-.476-1.419-.758-1.8-2.566-2.579-3.974a6.718,6.718,0,0,0-9.855-2.168l-.793,3.21a6.484,6.484,0,0,1,1.95,4.271c.184,1.592.061,3.207.22,4.8a6.766,6.766,0,0,0,1.818,4.339,3.427,3.427,0,0,0,4.378.394,7.11,7.11,0,0,0,4.763,4.484,5.446,5.446,0,0,0,5.907-2.326,4.431,4.431,0,0,0-1.49-5.922" transform="translate(-130.969 -5.864)" fill="#421b36"/>
        <path id="パス_52" data-name="パス 52" d="M161.059,61.354s6.547-1.5,8.923-.815-2.715,3-5.093,2.9-3.841-1.374-3.831-2.089" transform="translate(-107.957 -40.459)" fill="#ffbfbf"/>
        <path id="パス_53" data-name="パス 53" d="M79.635,66.952l9.677,8.414s4.867-7.905,9.326-11.044a8.779,8.779,0,0,1,4.333-1.632c.816.011-5.926,24.334-10.418,24.543S73.454,73.783,73.24,71.212s6.4-4.259,6.4-4.259" transform="translate(-49.089 -42.021)" fill="#8380ff"/>
        <path id="パス_54" data-name="パス 54" d="M160.125,1.607C159.112.646,156.286-.014,155.037,0a6.765,6.765,0,0,0-2.688.525,4.023,4.023,0,0,0-1.991,1.829,2.881,2.881,0,0,0,.015,2.651,4.049,4.049,0,0,0-1.294,3.478,5.815,5.815,0,0,0,1.695,3.389,10.481,10.481,0,0,0,3.2,2.128Z" transform="translate(-99.911 0)" fill="#421b36"/>
        <path id="パス_55" data-name="パス 55" d="M162.825,7.816A6.42,6.42,0,0,0,152.215,5.1a12.327,12.327,0,0,0-2.668,4.945c-2.429,7.306,4.436,8.27,4.436,8.27l.829,4.715c1.84,1.023,3.763.7,6.053-.773l-.923-4.819a36.425,36.425,0,0,0,3-7.566,4.231,4.231,0,0,0-.119-2.059" transform="translate(-99.892 -2.2)" fill="#ffbfbf"/>
        <path id="パス_56" data-name="パス 56" d="M162.79,28.58a2.843,2.843,0,0,1-.852.194,1.358,1.358,0,0,1-.9-.424c-.213-.193-.546.132-.361.353.527.631,1.8.851,2.245.013.047-.087-.058-.158-.134-.136" transform="translate(-107.666 -18.964)" fill="#421b36"/>
        <path id="パス_57" data-name="パス 57" d="M179.136,18.042c-2.186-3.295,1.324-6.573,1.666-8.469s-2.219-5.455-3.281-6.83l.147-.4c1.737-.841,3.832.792,5.146,2.211a8.224,8.224,0,0,1,1.769,2.727,11.535,11.535,0,0,1,.514,2.694,8.587,8.587,0,0,1-5.953,8.209" transform="translate(-118.992 -1.416)" fill="#421b36"/>
        <g id="グループ_42" data-name="グループ 42" transform="translate(56.303 8.151)" opacity="0.3">
          <g id="グループ_41" data-name="グループ 41">
            <g id="グループ_40" data-name="グループ 40" clip-path="url(#clip-path-3)">
              <path id="パス_58" data-name="パス 58" d="M170.781,24.934c-.1.265.358.676,1.017.918s1.272.224,1.369-.041-.358-.676-1.017-.918-1.272-.224-1.369.041" transform="translate(-170.768 -24.722)" fill="#421b36"/>
            </g>
          </g>
        </g>
        <path id="パス_59" data-name="パス 59" d="M189.475,33.468a1.169,1.169,0,0,1,1.063.548,1.848,1.848,0,0,1,.245,1.209,2.167,2.167,0,0,1-1.087,1.69,1.6,1.6,0,0,1-1.911-.319" transform="translate(-125.871 -22.429)" fill="#ffbfbf"/>
        <path id="パス_60" data-name="パス 60" d="M190.616,38.188c-.01-.157.026-.266-.07-.408a.819.819,0,0,0-.36-.28.92.92,0,0,0-.9.111.23.23,0,0,0,.224.395.717.717,0,0,1,.565-.068,1.293,1.293,0,0,1,.461.281.043.043,0,0,0,.077-.031" transform="translate(-126.822 -25.091)" fill="#421b36"/>
        <path id="パス_61" data-name="パス 61" d="M13.177,302.824a11.551,11.551,0,0,0,1.275-.149,13.657,13.657,0,0,0,5.487-3.181c1.713-1.7,3.022-10.711,2.921-11l7.824,5.959s-4,6.827-4.779,9.257-1.518,8.963-2.878,10.024-12.3-1.9-16.245-3.374c-6.123-2.292-7.023-5.793-6.7-6.564.222-.53,10.86-.569,13.1-.976" transform="translate(-0.017 -193.378)" fill="#ffbfbf"/>
        <path id="パス_62" data-name="パス 62" d="M.258,334.207a6.494,6.494,0,0,1,.9-.141h0c.088.135,2.805,4.116,9.417,6.851a25.628,25.628,0,0,0,13.433,1.419,4.468,4.468,0,0,1-1,1.975.7.7,0,0,1-.154.087,1.69,1.69,0,0,1-.468.111c-2.73.32-12.053-2.234-15.624-3.571-4.708-1.761-6.285-4.2-6.665-5.614-.178-.735-.093-1.051.164-1.116" transform="translate(0 -223.908)" fill="#a0d2f4"/>
        <path id="パス_63" data-name="パス 63" d="M5.406,327.966l10.112-.6a10.879,10.879,0,0,0,3.593-1.188h0c1.947-1.811,4.007-1.123,4.422.633a5.478,5.478,0,0,1-.715,3.434c.094.05.187.1.283.147a6.188,6.188,0,0,0,4.556.316c-.422,2.165-.846,4.217-1.29,5.639a25.177,25.177,0,0,1-13.45-1.336c-6.725-2.779-9.4-6.934-9.4-6.934Z" transform="translate(-2.357 -217.921)" fill="#8380ff"/>
        <path id="パス_64" data-name="パス 64" d="M47.682,334.328c-.338-.605-.48-1.3-.817-1.912a7.732,7.732,0,0,0-1.41-1.783.309.309,0,0,1,.406-.466c1.127.813,2.367,2.676,1.944,4.135-.015.05-.091.083-.122.026" transform="translate(-30.4 -221.263)" fill="#421b36"/>
        <path id="パス_65" data-name="パス 65" d="M38.251,335.274c-.54-1.042-.776-2.208-1.772-2.949-.326-.242.033-.762.387-.589a2.983,2.983,0,0,1,1.329,1.61,2.616,2.616,0,0,1,.183,1.918.074.074,0,0,1-.128.01" transform="translate(-24.366 -222.337)" fill="#421b36"/>
        <path id="パス_66" data-name="パス 66" d="M29.293,335.4a9.86,9.86,0,0,1-.477-1.54,6.389,6.389,0,0,0-.97-1.447c-.274-.379.233-.728.568-.5.888.6,1.737,2.439,1.211,3.465a.194.194,0,0,1-.332.025" transform="translate(-18.613 -222.428)" fill="#421b36"/>
        <path id="パス_67" data-name="パス 67" d="M27,342.545c-7.328,1.194-18.671-.78-22.522-7.972-.142-.266.236-.537.4-.268,4.386,7.375,14.457,8.167,22.108,8.02a.11.11,0,0,1,.018.22" transform="translate(-2.979 -224.008)" fill="#421b36"/>
        <path id="パス_68" data-name="パス 68" d="M51.784,349.75a10.211,10.211,0,0,1-3.765-.55c-.293-.095-.129-.612.168-.521a30.956,30.956,0,0,0,3.609.815.129.129,0,0,1-.012.255" transform="translate(-32.083 -233.71)" fill="#fff"/>
        <path id="パス_69" data-name="パス 69" d="M37.905,216.139a10.575,10.575,0,0,0,.98-.626,12.377,12.377,0,0,0,3.212-4.767c.722-2.064-1.781-9.927-1.977-10.119l8.738,1.757s-.556,7.149-.228,9.438,2.314,7.906,1.625,9.31-10.78,3.327-14.577,3.686c-5.9.558-8.019-1.938-8.062-2.7-.029-.52,8.625-4.767,10.287-5.984" transform="translate(-18.513 -134.479)" fill="#ffbfbf"/>
        <path id="パス_70" data-name="パス 70" d="M27.748,259.625a5.921,5.921,0,0,1,.679-.472h0c.125.075,3.917,2.243,10.39,1.853a23.223,23.223,0,0,0,11.51-4.165,4.044,4.044,0,0,1-.036,2.007.621.621,0,0,1-.091.132,1.529,1.529,0,0,1-.337.276c-2.1,1.342-10.709,2.954-14.149,3.28-4.535.43-6.787-.935-7.656-1.935-.436-.528-.492-.82-.309-.975" transform="translate(-18.533 -172.158)" fill="#a0d2f4"/>
        <path id="パス_71" data-name="パス 71" d="M31.5,243.25l8-4.495a9.861,9.861,0,0,0,2.458-2.391h0c.869-2.248,2.82-2.5,3.855-1.236a4.966,4.966,0,0,1,.777,3.082c.1,0,.193.01.289.008a5.608,5.608,0,0,0,3.839-1.547c.514,1.931.981,3.772,1.183,5.107a22.818,22.818,0,0,1-11.491,4.24c-6.582.4-10.408-1.927-10.408-1.927Z" transform="translate(-20.114 -157.095)" fill="#8380ff"/>
        <path id="パス_72" data-name="パス 72" d="M66.284,246.229c-.515-.36-.905-.868-1.423-1.234a7.005,7.005,0,0,0-1.856-.895.28.28,0,0,1,.146-.54c1.24.216,2.989,1.243,3.222,2.6.008.047-.041.1-.089.07" transform="translate(-42.099 -163.252)" fill="#421b36"/>
        <path id="パス_73" data-name="パス 73" d="M59.021,250.687c-.853-.635-1.507-1.492-2.612-1.7-.362-.069-.275-.634.082-.634a2.7,2.7,0,0,1,1.721.786,2.369,2.369,0,0,1,.909,1.49.067.067,0,0,1-.1.058" transform="translate(-37.655 -166.469)" fill="#421b36"/>
        <path id="パス_74" data-name="パス 74" d="M51.757,254.284a8.967,8.967,0,0,1-1-1.066,5.786,5.786,0,0,0-1.364-.8c-.374-.2-.1-.685.263-.634.961.135,2.382,1.3,2.36,2.344a.175.175,0,0,1-.261.152" transform="translate(-32.989 -168.77)" fill="#421b36"/>
        <path id="パス_75" data-name="パス 75" d="M52.651,256.725c-5.5,3.876-15.526,6.761-21.514,2.425-.221-.16-.02-.531.217-.376,6.5,4.273,15.018.929,21.2-2.222a.1.1,0,0,1,.1.172" transform="translate(-20.807 -171.957)" fill="#421b36"/>
        <path id="パス_76" data-name="パス 76" d="M75.726,255.675a9.252,9.252,0,0,1-3.287,1.043c-.276.039-.348-.447-.069-.491a27.95,27.95,0,0,0,3.265-.765.117.117,0,0,1,.091.213" transform="translate(-48.391 -171.231)" fill="#fff"/>
        <path id="パス_77" data-name="パス 77" d="M97.206,108.53c.019-.392-19.2-21.91-25.046-24.007C65.133,82,62.09,85.851,61.188,89.234c-1.025,3.846-2.866,37.576-.576,39s14.573-.607,14.573-.607l.482-18.038,4.365,4.46,16.909-.026Z" transform="translate(-39.892 -56.111)" fill="#421b36"/>
        <path id="パス_78" data-name="パス 78" d="M84.779,137.546l-.361,7.485s-16.692,5.62-19.512,7.53S47.238,187.894,47.734,189.4s13.311,6.3,14.052,5.09,12.946-29.3,12.946-29.3,21.409-2.205,25.451-5.875-1.158-22.553-1.158-22.553Z" transform="translate(-31.988 -91.667)" fill="#421b36"/>
        <path id="パス_79" data-name="パス 79" d="M91.251,162.917a91.858,91.858,0,0,0-16.793,5.133c-2.686,1.156-5.344,2.672-6.679,5.377-2.889,5.857-5.488,11.871-8.2,17.81q-1.416,3.1-2.831,6.2c-.141.311.363.472.5.166q3.189-7.016,6.38-14.031c1.3-2.839,2.589-5.679,3.9-8.509.306-.659.585-1.349.94-1.985,1.092-1.954,3.155-3.216,5.114-4.177A84.526,84.526,0,0,1,91.271,163a.044.044,0,0,0-.02-.087" transform="translate(-38.019 -109.202)" fill="#8380ff"/>
        <path id="パス_80" data-name="パス 80" d="M162.718,163.18a23.938,23.938,0,0,1,8.716,4.074c.181.14.438-.156.262-.308a15.238,15.238,0,0,0-8.962-3.857.047.047,0,0,0-.017.09" transform="translate(-109.048 -109.318)" fill="#8380ff"/>
        <path id="パス_81" data-name="パス 81" d="M192.8,175.622l.019-.01a.092.092,0,0,0,.046-.1.089.089,0,0,0-.03-.047.082.082,0,0,0-.052-.022.092.092,0,0,0-.084.051.089.089,0,0,0,.031.112l.018.012a.052.052,0,0,0,.052,0" transform="translate(-129.158 -117.599)" fill="#421b36"/>
        <path id="パス_82" data-name="パス 82" d="M104.589,129.575a67.8,67.8,0,0,0-1.78-17.084.25.25,0,0,0-.488.109c.338,2.837.864,5.652,1.206,8.491s.529,5.675.938,8.494c.01.071.122.059.124-.011" transform="translate(-68.583 -75.274)" fill="#8380ff"/>
        <path id="パス_83" data-name="パス 83" d="M106.009,121.145a12.4,12.4,0,0,0,2.03-5.373c.037-.27-.383-.287-.422-.02a18.845,18.845,0,0,1-1.655,5.371c-.013.027.03.045.046.022" transform="translate(-71.024 -77.46)" fill="#8380ff"/>
        <path id="パス_84" data-name="パス 84" d="M167.68,64.365a10.386,10.386,0,0,0-7.349-4.107,4.707,4.707,0,0,1-7.508.8c-.392-.019-5.485,10.043-5.2,14.5.236,3.737,1.814,5.2,1.814,5.2s-.362,5.728,1.247,6.877c6.32,4.512,19.5,1.541,19.632-2.2.14-3.941.063-17.215-2.633-21.071" transform="translate(-98.941 -40.39)" fill="#8380ff"/>
        <path id="パス_85" data-name="パス 85" d="M225.491,187.84l-5.457.757,1.137,4.8.275.013,4.62-.58Z" transform="translate(-147.488 -125.908)" fill="#ffbfbf"/>
        <path id="パス_86" data-name="パス 86" d="M196.161,107.964s.616,2.256,4.251,1.852c2.083-.231,5.618-.9,4.995-4.517s-5.532-24.242-7.225-29.876c-2.27-7.558-6.154-9.95-8.258-9.486s-2.745,4.192-2.239,8.4,8.476,33.628,8.476,33.628" transform="translate(-125.693 -44.16)" fill="#8380ff"/>
        <path id="パス_87" data-name="パス 87" d="M197.976,209.207c.032-.106-1.372.3-1.181-1.382a7.188,7.188,0,0,1,2.632-4.118c.9-.68,5.352-1.443,5.541-1.6s5.226-.727,5.226-.727,1.493,2.485.971,3.909-1.076,1.8-3.067,2.06-3.5.448-3.684.492-1.413,3.359-2.479,3.2-.761-1.053-.7-.958c.18.307-1.446,1.34-1.991.219,0,0-1.766.553-1.262-1.1" transform="translate(-131.899 -134.981)" fill="#ffbfbf"/>
        <path id="パス_88" data-name="パス 88" d="M200.051,214.818a8.541,8.541,0,0,1,3.045-4.926c.249-.2-.084-.562-.332-.366a8.963,8.963,0,0,0-3.182,5.137c-.065.308.4.465.47.154" transform="translate(-133.774 -140.407)" fill="#421b36"/>
        <path id="パス_89" data-name="パス 89" d="M204.416,217.267c.742-1.979,1.69-4.376,3.944-5,.3-.085.2-.568-.108-.482-2.445.681-3.494,3.169-4.305,5.332-.112.3.358.451.47.154" transform="translate(-136.692 -141.949)" fill="#421b36"/>
        <path id="パス_90" data-name="パス 90" d="M210.137,219.207a8.426,8.426,0,0,1,1.379-2.845,3.086,3.086,0,0,1,2.521-1.407.247.247,0,0,0,.024-.494c-2.4-.124-3.849,2.625-4.393,4.592-.085.306.384.461.469.154" transform="translate(-140.532 -143.749)" fill="#421b36"/>
        <path id="パス_91" data-name="パス 91" d="M196.9,219.419c.032,0,.064,0,.1.009a.174.174,0,0,1,.043.007l-.022,0,.026.006a1.287,1.287,0,0,1,.175.055l.041.017c.017.007.062.016.006,0a.343.343,0,0,1,.077.042,1.379,1.379,0,0,1,.16.108c.006,0,.045.038.016.013s.01.009.016.015c.023.022.046.044.069.068s.043.048.064.073l.027.035c.021.028.008.022,0,0a.579.579,0,0,0,.051.081c.016.028.031.056.045.085s.024.053.035.08c.023.055-.015-.051,0,.006,0,.017.011.034.015.05a.247.247,0,0,0,.482-.108,1.579,1.579,0,0,0-1.4-1.13.247.247,0,0,0-.024.494" transform="translate(-131.821 -146.744)" fill="#421b36"/>
        <path id="パス_92" data-name="パス 92" d="M200.574,223.008l.059.006c.028,0-.028-.009.016,0s.076.02.113.034l.055.022c.039.017-.047-.027.017.009.035.02.069.04.1.063l.039.028c.06.043-.015-.016.017.013a1.089,1.089,0,0,1,.085.084,1.145,1.145,0,0,1,.077.093c.026.034-.027-.046.012.017.01.017.021.034.031.051a1.154,1.154,0,0,1,.146.455c0,.006.008.068.006.047s0,.048,0,.047c0,.045,0,.09,0,.135a2.288,2.288,0,0,1-.023.269.248.248,0,0,0,.235.259.254.254,0,0,0,.258-.235,1.881,1.881,0,0,0-.213-1.248,1.328,1.328,0,0,0-1.012-.648.247.247,0,0,0-.024.494" transform="translate(-134.286 -149.15)" fill="#421b36"/>
        <path id="パス_93" data-name="パス 93" d="M205.316,225.282c.074-.018.149-.036.224-.047l.054-.007c-.057.007.012,0,.02,0a.861.861,0,0,1,.105.006c-.034,0-.019,0,.006,0l.05.016c.055.02-.029-.023.017.01l.041.029c.023.015-.025-.029,0,0l.034.037a1.105,1.105,0,0,1,.069.088c-.02-.028-.008-.012,0,.007l.028.043.058.09c.04.064.079.129.114.2.018.035.034.071.05.106s0-.018,0,.009.011.033.016.05a.906.906,0,0,1,.023.1c0,.014,0,.072,0,.017,0,.021,0,.043,0,.063a.247.247,0,1,0,.493.024,1.775,1.775,0,0,0-.439-1.057.779.779,0,0,0-.466-.316,1.407,1.407,0,0,0-.622.044.247.247,0,0,0,.108.482" transform="translate(-137.419 -150.639)" fill="#421b36"/>
        <path id="パス_94" data-name="パス 94" d="M210.517,226.307c.059-.024-.03.007.006,0l.048-.014c.033-.009.066-.014.1-.02s-.027,0,0,0l.05,0a.927.927,0,0,1,.1.005c.008,0,.035,0,.04,0l-.015,0,.02,0a.9.9,0,0,1,.1.028l.047.018c.044.016-.019-.012.006,0s.057.032.085.051l.038.027c.025.018.01,0,0-.005.023.009.051.048.067.066a.3.3,0,0,1,.06.073c-.011-.027-.016-.023,0,0l.024.04a.911.911,0,0,1,.042.084c0,.006.016.028.014.035-.01-.028-.012-.033-.006-.016l.009.027c.008.027.014.054.02.082s0,.031.007.046c.01.052,0-.048,0,.009a.253.253,0,0,0,.235.259.25.25,0,0,0,.259-.235,1.124,1.124,0,0,0-1.579-1,.248.248,0,0,0-.1.333.254.254,0,0,0,.333.1" transform="translate(-140.866 -151.337)" fill="#421b36"/>
        <path id="パス_95" data-name="パス 95" d="M69.124,57.734l.959,3.841-1.738-.511-.274-1.443Z" transform="translate(-45.628 -38.698)" fill="#ffbfbf"/>
        <path id="パス_96" data-name="パス 96" d="M67.8,45.55s2.742,10.932,4.13,11.692,6.519.6,6.625-.176S75.9,45.577,74.981,45.2s-7.52-1.012-7.179.355" transform="translate(-45.439 -29.971)" fill="#421b36"/>
        <path id="パス_97" data-name="パス 97" d="M67.763,54.061s.749-.689.269-1.306-1.6-.406-2.214,1.054-.889,2.74.59,3.506c0,0-.228.591.558,1.278a1.807,1.807,0,0,0,.5,1.666s.124,1.528,1,1.965,2.713.14,2.631-.546-1.844-1.138-1.844-1.138,1.43-.1,1.677-.677-.562-1.308-.562-1.308a.932.932,0,0,0,.351-1.013c-.182-.659-.968-.99-2.073-1.031a7.651,7.651,0,0,0-1.985.187s.5-2.365,1.106-2.637" transform="translate(-43.787 -35.143)" fill="#ffbfbf"/>
        <path id="パス_98" data-name="パス 98" d="M68.374,64.791a5.3,5.3,0,0,1,2.739-.515c.208.016.224-.307.016-.323a5.629,5.629,0,0,0-2.9.552c-.188.091-.038.379.15.287" transform="translate(-45.673 -42.855)" fill="#421b36"/>
        <path id="パス_99" data-name="パス 99" d="M70.062,70.719a16.986,16.986,0,0,1,3.411-.156.162.162,0,0,0,.015-.323,17.385,17.385,0,0,0-3.5.164c-.206.03-.135.346.071.316" transform="translate(-46.832 -47.064)" fill="#421b36"/>
        <path id="パス_100" data-name="パス 100" d="M71.951,76.075a5.459,5.459,0,0,0,2.719.178c.2-.039.134-.355-.071-.316a5.114,5.114,0,0,1-2.547-.169.162.162,0,0,0-.1.308" transform="translate(-48.156 -50.78)" fill="#421b36"/>
        <path id="パス_101" data-name="パス 101" d="M69.98,60.324a4.334,4.334,0,0,1,.773-2.3c.119-.171-.153-.348-.271-.177a4.655,4.655,0,0,0-.825,2.462.162.162,0,0,0,.323.015" transform="translate(-46.69 -38.728)" fill="#421b36"/>
        <path id="パス_102" data-name="パス 102" d="M68.641,53.008a1.041,1.041,0,0,0,.936.078,1.027,1.027,0,0,0,.573-.624.162.162,0,0,0-.308-.1.71.71,0,0,1-.4.431.7.7,0,0,1-.626-.055c-.178-.109-.355.162-.177.271" transform="translate(-45.96 -35.025)" fill="#421b36"/>
        <path id="パス_103" data-name="パス 103" d="M76.465,64.812a1.256,1.256,0,0,0,.623.909,1.269,1.269,0,0,0,1.206,0,.162.162,0,0,0-.15-.287.934.934,0,0,1-.9,0,.952.952,0,0,1-.463-.7.163.163,0,0,0-.193-.123.165.165,0,0,0-.123.194" transform="translate(-51.253 -43.311)" fill="#421b36"/>
        <path id="パス_104" data-name="パス 104" d="M78.178,70.426a1.368,1.368,0,0,0,1.309,1.328.162.162,0,1,0,.015-.323,1,1,0,0,1-.692-.3,1.014,1.014,0,0,1-.226-.324.742.742,0,0,1-.059-.174.99.99,0,0,1-.018-.1s0-.051,0-.024c0-.022,0-.045,0-.068a.166.166,0,0,0-.154-.169.163.163,0,0,0-.169.154" transform="translate(-52.402 -47.102)" fill="#421b36"/>
        <path id="パス_105" data-name="パス 105" d="M79.469,78.5a.994.994,0,0,0,.95,1.1.162.162,0,1,0,.015-.323.692.692,0,0,1-.087,0l-.037-.005c.022,0,.025,0,.006,0l-.012,0a.721.721,0,0,1-.082-.025l-.034-.014c-.016-.007-.031-.015-.007,0a.931.931,0,0,1-.137-.086l-.019-.015c.015.014.017.014,0,0L80,79.1c-.019-.019-.038-.039-.056-.059s-.034-.042-.05-.064c.023.032,0,0,0-.008l-.022-.038c-.013-.023-.025-.047-.036-.072l-.014-.035c.016.038,0,0,0-.013a.707.707,0,0,1-.02-.078c0-.012,0-.024-.007-.036s-.006-.053,0-.027,0-.023,0-.028,0-.025,0-.037a.7.7,0,0,1,.009-.087.162.162,0,0,0-.154-.169.166.166,0,0,0-.169.154" transform="translate(-53.261 -52.517)" fill="#421b36"/>
        <path id="パス_106" data-name="パス 106" d="M79.447,53.7a.7.7,0,1,1-1.026-.38.783.783,0,0,1,1.026.38" transform="translate(-52.366 -35.683)" fill="#fff"/>
        <path id="パス_107" data-name="パス 107" d="M191.709,111.841c-.907-3.271-1.646-6.583-2.384-9.895-.362-1.625-.726-3.25-1.115-4.868q-.293-1.219-.607-2.432a2.6,2.6,0,0,0-.285-.926,2.886,2.886,0,0,0-.376-.322c-.21-.18-.517.124-.306.305a1.874,1.874,0,0,1,.376.322,2.834,2.834,0,0,1,.131.572q.064.245.127.49.311,1.211.6,2.427c.38,1.591.736,3.188,1.092,4.785.72,3.233,1.446,6.464,2.331,9.656a.216.216,0,0,0,.417-.115" transform="translate(-125.053 -62.567)" fill="#421b36"/>
        <path id="パス_108" data-name="パス 108" d="M190.647,76.166a4.654,4.654,0,0,1,3.427-4.472.216.216,0,0,0-.115-.417,5.094,5.094,0,0,0-3.744,4.889.216.216,0,0,0,.432,0" transform="translate(-127.5 -47.771)" fill="#421b36"/>
        <path id="パス_109" data-name="パス 109" d="M158.516,145.089l.474,5.538c.023.275.456.278.432,0q-.237-2.769-.473-5.538c-.024-.275-.456-.278-.432,0" transform="translate(-106.252 -97.113)" fill="#8380ff"/>
        <path id="パス_110" data-name="パス 110" d="M148.42,92.472a7.815,7.815,0,0,0,.623,9.963c.191.2.5-.1.306-.306a7.386,7.386,0,0,1-.556-9.44c.165-.224-.21-.44-.373-.218" transform="translate(-98.478 -61.921)" fill="#421b36"/>
        <path id="パス_111" data-name="パス 111" d="M195.669,11.936a4.572,4.572,0,0,1,1.508,3.524c-.009.278.424.278.432,0a4.994,4.994,0,0,0-1.634-3.83c-.207-.185-.513.119-.306.306" transform="translate(-131.109 -7.757)" fill="#8380ff"/>
        <path id="パス_112" data-name="パス 112" d="M151.849,322.341a6.75,6.75,0,0,0-4.423,7.166,10.881,10.881,0,0,0,2.71,5.185,31.224,31.224,0,0,0,4.559,4.444,1.47,1.47,0,0,0,2.286-.6,26.685,26.685,0,0,0,2.06-9.242c.032-2.152-.292-4.515-1.871-5.979a5.44,5.44,0,0,0-5.32-.977m5.063,5.64a3.537,3.537,0,0,1-6.966,1.213,3.553,3.553,0,1,1,6.966-1.213" transform="translate(-98.776 -215.865)" fill="#421b36"/>
        <path id="パス_113" data-name="パス 113" d="M180.28,283.695a111.613,111.613,0,0,0,15.746-4.184,92.9,92.9,0,0,0,14.983-6.627,66.745,66.745,0,0,0,6.7-4.259,20.889,20.889,0,0,0,5.325-5.168,9.866,9.866,0,0,0,1.611-6.79,13.052,13.052,0,0,0-2.889-6.374c-3.4-4.2-8.745-6.032-13.778-7.42-.665-.184-1.332-.361-2-.539a.216.216,0,0,0-.115.417c5.024,1.335,10.481,2.754,14.329,6.473,3.488,3.372,5.432,8.634,2.981,13.16A17.586,17.586,0,0,1,218.1,267.8a62.276,62.276,0,0,1-6.364,4.171,89.839,89.839,0,0,1-14.487,6.648,111.04,111.04,0,0,1-15.217,4.287q-.93.192-1.864.368c-.273.052-.158.468.115.417" transform="translate(-120.659 -162.429)" fill="#421b36"/>
        <g id="グループ_45" data-name="グループ 45" transform="translate(28.235 84.457)" opacity="0.2">
          <g id="グループ_44" data-name="グループ 44">
            <g id="グループ_43" data-name="グループ 43" clip-path="url(#clip-path-4)">
              <path id="パス_114" data-name="パス 114" d="M144.843,262.465h-.249a.834.834,0,0,1,.287.3,2.12,2.12,0,0,1-.322.089c-.027-.129-.056-.257-.084-.385s-.05-.236-.077-.353a.326.326,0,0,1,.445.353m-1.27-3.364c.06.191.124.381.181.573a.611.611,0,0,0,.174-.237.429.429,0,0,0-.355-.336m2.153,2.557c-.062-.189-.124-.378-.189-.566-.415.065-.706.266-.323.7a.438.438,0,0,0,.512-.132m-2.637-4c.117.205.486.2.782-.051a1.048,1.048,0,0,1-.113-.289c-.05-.071-.1-.14-.153-.21l-.449.067a.622.622,0,0,0-.1.383l.035.1m1.748,2.861c-.025-.8-1.028-.481-.664.155a.465.465,0,0,0,.664-.155M144.6,258.7c-.066-.151-.129-.3-.2-.452l-.037-.054a.5.5,0,0,0-.245.3c.044.24.285.286.479.208m-1.823-2.165c-.006-.1-.013-.22-.02-.331-.1-.022-.176-.038-.238-.046.059.146.116.292.173.439.026-.02.052-.04.084-.062M90.587,295.9v.083a.232.232,0,0,0-.372.132.827.827,0,0,1,.215.514l.157.018c.147.044.249-.059.355-.1l.119-.352a.912.912,0,0,0-.473-.3m25.615,6.176a.383.383,0,0,0-.055.324c.053.549.816.291.9-.109a.537.537,0,0,1,.188-.326c-.343.042-.686.078-1.031.11m5.754-.778a.58.58,0,0,0-.225-.189c-.189.049-.378.094-.568.14a.82.82,0,0,1-.035.373c.343.193.645,0,.828-.324m-9.091,1.48a.629.629,0,0,0,.111-.555q-.443,0-.885-.013a.585.585,0,0,0,.774.567m24.144-7.447c.3.471.677.53.959-.007-.028-.149-.058-.3-.09-.477-.488.031-.674-.169-.868.484m-17.87,9.6-.062.425.161.193q.393-.066.783-.141c-.051-.458-.279-.582-.882-.476m-2.562-1.126c-.167.223-.507.453-.384.737.231.215.688.48.784,0,.179-.324-.072-.616-.4-.734m24.374-14.406a.5.5,0,0,0,.454.457l.455-.234c.177-.754-.676-.873-.909-.223m-33.844,13.913c.176.186.263.576.561.466.2-.092.5-.275.4-.53-.242-.568-.788-.376-.96.064M93.612,298.84a3.1,3.1,0,0,1-.332.382c.2.152.4.3.61.451a.476.476,0,0,0,.235-.21c-.212-.5-.212-.5-.513-.624m43.782-5.027c.212-.017.318-.177.485-.273.261-1.356-1.5-.375-.485.273M139.656,289q-.258.369-.529.731a.463.463,0,0,0,.1.1c.637-.087.811-.408.425-.832m-22.586,16.119c-.032.119.207.469.44.672l.368-.045c0-.243-.082-.472.084-.7-.247-.241-.4-.227-.893.072m6.052-1.647c.361.7,1.051.012.756-.573-.467-.074-.746.062-.756.573m9.463-4.728c.349-.025.354-.636.164-.839-.619-.3-1.085.9-.164.839m-29.071,4.171a.8.8,0,0,0-.389.553c.272.448.439.383.753.138.486-.248-.052-.612-.364-.691m40.966-22.029.348-.24c.067-.3.01-.7-.371-.676l-.411.247c-.075.484.057.5.434.669m-40.315,21.371c-.042.618.962.605.925-.049-.257-.315-.817-.485-.925.049m-3.3.48.194.3c.073-.377.055-.437-.265-1.052-.764-.2-.673,1.152.072.749m35.573-5.925.486-.4c-.133-1.2-1.482,0-.486.4m-14.36,5.362c.023.132.044.252.065.365a.484.484,0,0,0,.869-.311c-.119-.512-.636-.308-.934-.054m6.448-.271-.349.209c-.1.31-.067.493.032.586q.39-.187.775-.384c-.015-.14-.141-.288-.458-.411m15.323-16.274a.765.765,0,0,0-.565-.749c-.633.462.02,1.313.565.749m-10.456,11.237a.608.608,0,0,0-.218.852c.415.1.8-.173.7-.586-.169-.172-.169-.172-.481-.266M146.7,274.74c.169-.3.169-.3.009-.6-.906-.484-1.076,1.054-.009.6m-8.368,16c.39.174.776-.194.455-.564-.148.191-.3.377-.455.564m-6.253,9.56a.924.924,0,0,0,.067.165q.293-.192.582-.39l-.177-.226c-.354,0-.3.335-.472.452m8.546-12.407a.388.388,0,0,0-.257.026c-.1.162-.205.325-.311.485.04.48.566.454.832.141.035-.043.053-.162.028-.181-.16-.123-.134-.357-.292-.471M114.312,306c.209,0,.417-.009.625-.017a.466.466,0,0,0-.625.017m32.025-27.171a.56.56,0,0,0,.441-.121c.025-.127.047-.255.07-.383a.794.794,0,0,0-.231-.331c-.494-.025-.958.8-.279.835M96.98,298.611c-.2-.091-.4-.185-.6-.279v.361l.227.111a.536.536,0,0,0,.37-.193m49.049-28.33c-.011.193.151.348.166.561.451.135.527-.092.7-.429a.465.465,0,0,0-.868-.132m-4.059,20.2a.665.665,0,0,0,.039.056q.189-.293.372-.589a.543.543,0,0,0-.238.035l-.173.5m-20.787,14.672q.333-.077.664-.16a.418.418,0,0,0-.664.16m-11.5-2.329a.8.8,0,0,0-.573.5c.046.138.23.15.252.318.2.236.607-.106.727-.339-.141-.156-.187-.392-.406-.477m35.648-33.789c.01.255.013.509.017.764a.5.5,0,0,0,.578-.113c-.029-.383-.308-.713-.6-.651m-30.607,33.592a.337.337,0,0,0,.236-.465q-.4.023-.8.037c-.062.275.142.542.56.428m30.352-23.01a.481.481,0,0,0,.837-.2c-.17-.691-.846-.55-.837.2m.272-8.553q-.007.4-.025.8c.137.06.337.006.589-.293l-.1-.414a.573.573,0,0,0-.465-.09m-16.933,29.741c.449-.21.473-.258.369-.761l-.455-.189c-.407.217-.2.826.086.951m-12.561,2.882c.447-.806-.553-1.251-.691-.293.18.207.362.393.691.293m-14.089-2.825-.37.074c.02.209-.238.313-.164.567.327.372.654.179.89-.156a.782.782,0,0,0-.356-.485m42.3-14.56c-.034.125,0,.271.12.3l.009,0q.147-.312.288-.627c-.194-.039-.365.024-.417.32m-39.383,17.544a.455.455,0,0,0-.333.768c.177-.024.337.162.555.063.284-.417.176-.532-.223-.831m-2.135.041c-.089.062-.18.112-.256.177.241.085.482.17.726.25a.619.619,0,0,0-.109-.319l-.361-.108M144.113,282.7c.377.284,1.075-.1.694-.529-.529-.4-.8-.078-.694.529M117.85,303.688c.342-.6-.258-1.133-.686-.563-.143.466.275.622.686.563m11.794-1.934.33-.471c-.518-1.036-1.521.35-.33.471m11.53-10.066c.018,0,.036.007.053.01q.242-.342.476-.69a.827.827,0,0,0-.129-.054.429.429,0,0,0-.4.735M130.1,300.357c-.007.44.828.431.811.017.076-.543-.942-.643-.811-.017m15.029-36.67c-.044.274.314.194.48.195a.7.7,0,0,0,.2-.7,2.859,2.859,0,0,0-.374-.181c-.41.108-.315.366-.3.684m-24.986,40.6c.081.828,1.164.283.693-.358-.416-.207-.522.116-.693.358m-1.7-2.356c-.187.387-.4.783.174.879.245-.358.562-.466.3-.9a.941.941,0,0,0-.469.022m5.368-.918-.406-.092c-1.07.805,1.005,1.246.406.092m10-5.834c-.2.159-.4.315-.608.469a.7.7,0,0,0,.288.174c.381-.115.451-.394.321-.643M99.8,299.774q-.275-.1-.549-.207v0a1.346,1.346,0,0,0,.523.238l.026-.035m31.288-.619a.6.6,0,0,0,.34.642c.351-.085.431-.346.474-.63-.4-.347-.46-.315-.814-.012m-4,4.052c.194-.085.387-.169.58-.258l-.031-.021c-.167.148-.388.147-.549.279M97.625,298.9a.888.888,0,0,0-.4.511.584.584,0,0,0,.613.313l.255-.379a.952.952,0,0,0-.08-.278l-.39-.167m37.687-1.972c-.342.439-.33.567.073.891l.333-.108c.245-.426.076-.747-.406-.783M105.206,303.2a.777.777,0,0,1,.109.4c1.274.557.666-1.455-.109-.4m40.684-29.7c-.116-.3-.388-.546-.636-.448-.017.226-.033.452-.055.677a.422.422,0,0,0,.691-.229m-18.981,28.624-.425-.3c-1.171.439.514,1.412.425.3m-18.33-.181c-.413.087-.544.641.187.769a.427.427,0,0,0,.2-.721c-.128-.015-.255-.032-.383-.048m13.547,2.4c-.068.426.793.661.742.082.06-.636-.641-.677-.742-.082m17.926-13.786c.412.234.563.209.858-.129-.107-.686-.993-.591-.858.129m-30.43,14.338a1.752,1.752,0,0,0-.446.245l.224.561.167.074.125.013.387-.449a.51.51,0,0,0-.456-.444m3.584.389c-.178.355.412.5.622.345.641-.486-.733-1.154-.622-.345m2.215-.356c-.615.481.081,1.01.546.546.057-.472-.022-.683-.546-.546m-11.39-3.564a.473.473,0,0,0-.084-.291l-.416-.108a.621.621,0,0,0-.281.161c-.122.14,0,.282.063.415.136.513.627.142.719-.177m-1.682,1.267h.577c.743-.979-1.109-.86-.577,0m42.064-17.752a.592.592,0,0,0,.387-.8c-.7-.228-1.051.365-.387.8m.612-1.386a.591.591,0,0,0,.339.313q.138-.378.267-.761c-.209-.1-.512.007-.606.448m-1.54,3.487c-.365.151-.365.151-.448.519a.593.593,0,0,0,.351.268c.083-.025.177-.033.265-.054q.1-.2.2-.4a.466.466,0,0,0-.372-.331m-.082-5.247a.766.766,0,0,0,.321-.02l.212-.418-.3-.231q-.112.336-.231.669M111.408,305.7c.451.105.548-.218.584-.6-.636-.286-1.261,0-.584.6m2.349-2.068c.511-.322-.137-1.139-.491-.632-.336.351.093.741.491.632m20.305-7.387c.042.166.078.309.122.477,1.214.214.5-1.439-.122-.477m-9.92,7.773a.664.664,0,0,0-.011.315q.394-.13.784-.268c0-.016-.005-.03-.011-.046-.261.059-.484-.129-.763,0m1.207-1.068c-.418.452-.229.687.336.729.549-.349.25-.772-.336-.729m-12.71.923-.279.153c-.581,1.3,1.568.407.279-.153m34.407-36.624a.566.566,0,0,0-.069.331l.131.1c-.019-.144-.041-.287-.062-.431m-22.9,33.133c.12.484.732.518.775-.162-.028-.027-.056-.054-.085-.08q-.344.125-.69.242m-23.421.343a.607.607,0,0,0,.292-.524q-.321-.108-.642-.221a.153.153,0,0,0-.034.036.46.46,0,0,0,.384.709m32.467-1.108a.592.592,0,0,0,.119.053q.292-.21.579-.426a.506.506,0,0,0-.122-.219c-.547-.282-.729.089-.577.591m-1.752,1.3a.467.467,0,0,0-.143.09m4.564-7.6c-.108.1-.215.2-.324.3a.39.39,0,0,0,.324-.3m5.6-5.5.4-.406c-.09-.62-.666-.6-.87-.072.082.231.3.284.466.478m-21.9,15.74a.387.387,0,0,0,.043-.77c-.469-.122-.692.9-.043.77m-10.937.247-.408.222c-.065.194.059.327.1.482l.3.1.393-.209c0-.385-.035-.445-.382-.594m-2.945-2.109a1.1,1.1,0,0,0,.255-.277q-.34-.068-.68-.14a.586.586,0,0,0,.425.417m20.784-1.8c-.584-.117-.282.941.175.694.427-.2.4-.812-.175-.694m-16.293,4.378c.268.551.735.492.753-.137-.076-.539-.7-.318-.753.137m36.508-31.615.15-.391-.174-.4c-.129.1-.423.094-.58.186v.6a1.367,1.367,0,0,0,.6.013M110.3,302.114c-.127.24-.075.577.307.525.374.083.444-.223.348-.478-.219-.013-.437-.029-.655-.046m26.184-7.246c.451-.284.621-.874-.064-.882-.49.19-.321.649.064.882m5.969-10.785c-.1.213-.2.422-.3.632a.328.328,0,0,0,.245.088c.566-.023.6-.741.056-.721M128.9,298.539a1.134,1.134,0,0,0,.009-.187q-.293.153-.59.3c.193.163.342.017.582-.113m-36.191-.68-.346.189a.952.952,0,0,0,.049.5c.073.059.148.117.223.175a.618.618,0,0,0,.264-.019c.071-.167.238-.318.167-.558l-.356-.283m44.1-5.376c-.064.067-.13.131-.2.2a.634.634,0,0,0,.261-.069l-.066-.128m5.317-6.263c-.085.372.163.544.5.568.29.034.239-.323.234-.513-.047-.34-.527-.269-.737-.054m5.289-14.458q0-.378-.018-.754c-.46.18-.429.663.018.754m-30.961,34.133.163-.014a.371.371,0,0,0-.163.014m30.044-29.059c.25.053.234-.219.291-.387.163-.338-.148-.349-.4-.423-.431.317-.45.679.111.81M114.4,304.71a1.041,1.041,0,0,0,.59-.415c-.41-.688-1.342-.18-.59.415m16.97-7.789-.185.12c-.022.124.113.289.14.408.091.322.491.261.664.042a.557.557,0,0,0-.619-.57m-9.874,6.768c.329-.142.329-.142.529-.475-.435-.663-1.356.156-.529.475m-15.012-.971c.223,0,.543.093.5-.258.11-.96-1.433-.073-.5.258m14.229-.768c-.406-.187-.5.112-.495.479.339.7,1.1-.183.495-.479m-19.453,1.581c.185.327.737.136.678-.144-.063-.138-.006-.225.068-.349-.7-.351-.6,0-.746.492m-1.631-.614a.771.771,0,0,0-.122.024c.151.069.3.135.457.2a.463.463,0,0,0-.334-.226m34.535-4.781a.369.369,0,0,0,.418.575l.163-.132c.288-.612.023-.727-.581-.443m12.423-33.354c-.047-.209-.094-.418-.145-.626a.465.465,0,0,0-.4.194c-.229.4.211.52.546.433m-2.106,13.28c-.057.244-.116.488-.178.731l.49-.132a.359.359,0,0,0-.311-.6m2.739-2.337c.015-.137.031-.274.044-.412,0-.042.006-.084.01-.126a.327.327,0,0,0-.053.538m-.745-7.72a.678.678,0,0,0-.474.524c.422.826,1.144-.159.474-.524m-28,35.889a1.356,1.356,0,0,0-.419.408l.219.312c.439.04.6.062.671-.346-.1-.19-.309-.246-.47-.374m-10.892.984c-.3.117-.408.349-.343.525q.335.064.672.121c.229-.2,0-.528-.329-.646m-.918-.91c-.391.016-.621.434-.267.693.534.113.93-.569.267-.693M145.2,267.108c.021.229.044.458.061.687a.6.6,0,0,0,.153.091c.643-.2.385-.873-.213-.777m-3.144,21.254c.3.688,1.015.346.67-.287-.29-.171-.634-.1-.67.287M129.7,299.834c.384-.436.012-1.17-.535-.682-.295.382.3.453.535.682m15.343-24.5.086.38a.479.479,0,0,0,.8-.346.763.763,0,0,1-.477-.264c-.117.111-.327.032-.4.23m-39.574,29.686q.242.059.485.116a.432.432,0,0,0-.485-.116m40.894-24.884-.233.021c-.162.14-.044.579.172.653q.107-.41.2-.825c-.064-.034-.122,0-.144.151m-3.117,3.574a1.037,1.037,0,0,0,.5-.02c-.008-.254.173-.418.061-.667-.478-.013-.952.187-.562.687m4.123-9.853c.013-.259.026-.518.033-.776l-.371.234c.01.376.165.543.338.542m-22.8,28.848c.963-.557-.346-1.042-.441-.482.068.217.108.463.441.482m-28.312-2.23a.608.608,0,0,0,.809.053c-.042-.608-.855-.76-.809-.053m43.1-7.51-.231.337.242.362h.371l.027-.033c.07-.163.113-.27.181-.446-.209-.071-.318-.3-.59-.221m7.978-23.2c-.017-.233-.039-.465-.061-.7a.592.592,0,0,0-.086.034c-.324.245-.164.558.146.663m-19.764,31.2c-.105-.126-.381.056-.32.192.056.162-.084.286-.044.434a.407.407,0,0,0,.69-.4c-.115-.052-.3-.026-.326-.228m17.218-24.306a.9.9,0,0,0,.069-.107.649.649,0,0,0-.035-.069c-.011.059-.022.117-.034.176m-33.594,26.583c.354.465.415.512.886.16-.06-.422-.715-.639-.886-.16M98.43,299.924c-.352.343.127.974.507.641.336-.349-.166-.626-.507-.641m-.887.98c-.457.095-.174.8.209.813.389-.17.22-.884-.209-.813m30.15-1.951c-.143.068-.288.134-.432.2a1.6,1.6,0,0,0,.05.385c.251.1.46-.051.679-.1.057-.243-.132-.344-.3-.486m-32.21.146c-.138.135-.376.32-.107.459.226.162.711.1.738-.22-.167-.155-.39-.521-.631-.239m37.3-2.46c.108-.282-.041-.395-.208-.53-.136.1-.276.19-.414.285a.384.384,0,0,0,.622.246m-38.676.534c-.146-.079-.292-.158-.437-.24l-.023-.005c-.134.27-.134.27-.479.394.368.556.728.318.939-.149m18.383,8.816.165,0a.236.236,0,0,0-.165,0m33.516-39.426c.168.238.338.4.632.285a.926.926,0,0,0,.068-.677c-.39-.137-.486.218-.7.392M94.542,298.632a.483.483,0,0,0,.585-.247c.1-.566-1.339-.473-.585.247m50.57-21.27c.037.175.034.389.289.448.187-.1.427-.144.524-.41l-.24-.257c-.195.047-.556-.033-.573.219m-52.087,19.2c-.2-.115-.395-.233-.591-.352-.033.036-.065.073-.1.111.183.456.346.36.687.241m-1.852.709a.564.564,0,0,1,.372.412c1.133-.1.1-1.166-.372-.412M145.123,281.5c.032.187.338.225.483.3.29-.131.095-.436.089-.675-.345-.295-.579.009-.572.374M138.7,292.685c.153-.327.092-.988-.357-.652s-.125.768.357.652m1.329-.3.42.374c.129-.168.257-.337.384-.508-.1-.221-.509-.308-.8.134m-5.278,2.036c-.1.088-.208.172-.312.259l.025,0a.663.663,0,0,0,.287-.262m-40.288,5.652c.181.125.365.247.549.369.076-.074.087-.187-.031-.34a.292.292,0,0,0-.518-.029m43.355-8.7c-.086.1-.172.2-.26.3l.382.024a.347.347,0,0,1-.122-.321m-18,10.175-.2.039a.977.977,0,0,0,.166.058l.038-.1m18.332-6.892c.278.219.486.068.714-.116-.016-.245-.016-.245-.227-.465-.35.021-.392.3-.487.581m-7.342,3.911v-.453c-.4-.275-.507-.229-.674.3.172.261.422.152.674.156m-32.568,3.761c.188.1.377.191.567.284.146-.064.221-.245.08-.522-.356-.106-.414-.085-.648.238m1.7-1.15-.3-.242a.351.351,0,0,0-.326.317l.3.428c.347-.093.347-.093.323-.5m25.974.186-.382-.418c-.313.1-.265.317-.33.58.327.053.552.286.712-.162m19.465-35.487c.105-.144.386-.1.43-.366-.344-.659-1.1.08-.43.366m-5.6,25.659c-.005-.115-.011-.246-.017-.377-.956-.329-.607.918.017.377m-4.012,3.614a.448.448,0,0,0-.527.008c.007.139.014.268.022.41.288.249.635-.088.505-.418m9.271-11.351a.128.128,0,0,0,.119.225c-.009-.09.015-.239-.119-.225M87.6,292.845a.441.441,0,0,0-.333.144c-.055.616.591,1.05.757.283a.371.371,0,0,0,0-.1c-.141-.109-.282-.219-.421-.33m.781,1.135c-.26.6.016.866.609.55-.085-.389-.1-.677-.609-.55m-2.03-1.78c.115.157.23.315.349.471a.3.3,0,0,0,.3-.311c-.162-.134-.323-.269-.483-.405a.536.536,0,0,0-.164.245m3.061,2.911c-.332.135-.2.319,0,.558.577.113.56-.3.4-.733-.19-.006-.36-.035-.408.175m-3.594-3.657a.8.8,0,0,0,.08-.03c-.086-.076-.174-.15-.26-.227.059.086.12.171.18.257" transform="translate(-85.636 -256.158)" fill="#421b36"/>
            </g>
          </g>
        </g>
        <g id="グループ_48" data-name="グループ 48" transform="translate(24.128 65.067)" opacity="0.2">
          <g id="グループ_47" data-name="グループ 47">
            <g id="グループ_46" data-name="グループ 46" clip-path="url(#clip-path-5)">
              <path id="パス_115" data-name="パス 115" d="M86.719,223.045h-.083c.2.767-.766.542-.747,0-.108-.62.872-.542.83,0m-2.468-.426c-.192.1-.522.172-.352.426.047.454.751.457.746,0-.013-.341-.013-.341-.394-.426m-1.613-3.5c-.01-.074-.018-.131-.029-.18l-.082.223a.351.351,0,0,0,.111-.043m-.4,3.594c-.182.08-.462.091-.5.332a.546.546,0,0,0,.5.415v.083c.3.068.353-.29.415-.5h.083c-.006-.127.051-.265-.057-.362l-.441.03m13.585-17.807c.07.473.3.759.77.54.5-.579-.414-1.307-.77-.54m.5,3.637c-1.044.258-.361,1.205.419.87a.753.753,0,0,0-.419-.87m6.027-7.926-.488.091c-.034.14-.065.271-.1.413.181.407.419.56.8.29.4-.176.027-.652-.213-.794m-8.343.006-.226.53a.738.738,0,0,0,.623.415c.588-.442.276-1.079-.4-.945m4.318,3.967-.289.126c-.271.456-.369.261.039.75l.644.038c.084-.577.048-.662-.394-.914m-5-2.019a.487.487,0,0,0,.03-.961c-.662.25-.711.711-.03.961m.934.012-.454.3c-.116.936,1.354.692.845-.109l-.391-.186m1.531,4.5c.272.645.809.547.986-.12-.3-.511-.844-.483-.986.12m5.747-.7c.373-.8-.428-1.133-.782-.315.089.371.521.739.782.315m-12.627,6.066c1.178.249.872-1.11.276-.823-.353.2-.478.431-.276.823m10.648-4.763c-.455-.361-.821.207-.691.656.541.521.962-.122.691-.656m-.753-3.743.225.5.367.131c.762-.584-.1-1.486-.592-.635M86.916,222.1l.442.377.432-.236v-.443l-.511-.3c-.379.226-.386.237-.363.6m15.807-17.3c-.765-.536-1.348.524-.433.751l.433-.378Zm-11.911-2.717c.16.641.519.551.925.176.193-.518-.951-.872-.925-.176m2.366,1.609a.586.586,0,0,0-.385.313c.273,1.367,1.776-.224.385-.313m8.359-2a.475.475,0,0,0-.682.6c.078.388.529.117.759.024.274-.149.011-.416-.077-.623m5.453,4.745c.353.388.775-.228.6-.635-.583-.5-1.066.093-.6.635m-17.208-.445c-.048-.22-.217-.3-.383-.4-.271.174-.545.214-.6.553.449.514.795.572.983-.15m2.022-2.813a.808.808,0,0,0,.483.386.609.609,0,0,0,.466-.457c-.178-.655-.822-.539-.949.071m8.859-.278a.494.494,0,0,0-.884.375c.393.5,1.028.287.884-.375m-6.22,5.654a.514.514,0,0,0-.309.962.865.865,0,0,0,.556-.31c-.091-.2-.05-.446-.247-.652m-.111-3.957c-1.262.39.092,1.418.429.5-.061-.22-.095-.451-.429-.5m6.3-3.444c.214-.553-.824-.648-.8-.11a.406.406,0,1,0,.8.11m-5.4,4.409c-1.108.57.541,1.7.446.279a2.152,2.152,0,0,1-.446-.279m14.279-1.959c-.537.087-.971.461-.432.9.579.286.763-.551.432-.9m2.073-3.213c.5-1.022-1.3-.846-.677.079.261.093.465-.051.677-.079m-9.963.01c.281-.547-.292-.953-.741-.564.01.581.144,1,.741.564m-6.323,3.2c-.69.166-.581.841.1.88l.367-.307c.043-.366-.21-.465-.463-.572m12.413.356c-.221-.5-.79-.33-.985.121a.5.5,0,0,0,.985-.121m-12.829,8.308.014.013c.239-.108.516-.229.828-.362-.175-.451-.916-.32-.842.349m10.739-10.544c-.335-.17-.335-.17-.781.089-.166.99,1.084.828.781-.089m11.263,2.058a.323.323,0,0,0-.1.235l.7-.253c-.135-.138-.332-.146-.6.018m-25.623.777a.483.483,0,0,0,.025-.956.669.669,0,0,0-.475.542c0,.2.34.263.45.413m-.533,2.322c-.275-.281-.751-.331-.847.132.041.876,1.046.516.847-.132m-2.685,8.545a.758.758,0,0,0,.683-.145c.066-1.085-1.3-.679-.683.145M97.737,204c-.3-.423-.792-.476-.969.073.334.666.726.582.969-.073m20.761-2.607-.742-.4c-.308.421.444.725.742.4M89.291,213.608a.739.739,0,0,0-.481.331c.148.834.742.676.971-.03l-.49-.3M103.969,199.5c.439.109.585-.152.766-.5-.472-.617-1.275-.171-.766.5m-.5,6.335c-.064-.33-.6-.173-.641.1-.145.623.623.808.893.269-.026-.2-.213-.206-.252-.364m-15.605,7.329c.16.066.232.345.4.353a.8.8,0,0,0,.538-.455c-.235-.526-1.013-.582-.938.1m11.8-7.4-.318-.182c-1.455.46.575,1.642.318.182m-1.988.122c-.456-.395-.719-.369-.85.239l.391.421c.189-.136.737-.393.459-.66m-6.251,6.645.358-.471c-.137-.51-.529-.479-.888-.213l-.064.256.211.324.383.1m11.616-10.055c.393.126.495-.173.657-.41-.054-.263-.26-.329-.412-.421a.552.552,0,0,0-.535.478l.29.352M90.035,213.383c.492.084.55.057.748-.356-.23-.755-1.256-.262-.748.356m8.085-9.841c.406.159.858-.85.213-.877a.459.459,0,0,0-.213.877m1.622,6.431-.45-.4c-1.162.279.226,1.538.45.4m-1.284.674a.393.393,0,0,0-.589.39l.713-.281a.455.455,0,0,0-.124-.109m-11.572-.689c.116.13.04.251.032.385l.4.205.47-.406c-.157-.531-.593-.693-.905-.184m21.638-6.613c.027-.461-.02-.536-.435-.715a.8.8,0,0,0-.373.527c.169.428.464.494.808.188m-8,1.339-.319-.1c-.309.2-.471.739-.059.967.568-.228.6-.3.379-.868m-5.616,3.133c-.134,1.384,1.4.363.427-.262a.69.69,0,0,0-.427.262m2.408-.252c-1.078.3.006,1.6.445.394l-.445-.394m15.059-2.092c.157-.089.154-.288.233-.433a.666.666,0,0,0-.358-.468c-.84.306-.541.816.125.9m-25.672,9.749v-.474c-.743-.423-1.049.284-.487.774l.487-.3m5.555.29.034-.014c.115-.229.228-.451.337-.657-.487-.707-1.189.481-.371.671m-2.007-.958-.362.3c-.111.522.167.473.591.564l.291-.509a.768.768,0,0,0-.521-.352M112.894,201.7a.46.46,0,1,0,.8.376c-.234-.191-.511-.678-.8-.376m-16.652-1.082c-.342.175-.342.175-.425.552.522.894,1.367-.381.425-.552m9.452,3.406c-.115-.3-.342-.382-.677-.348l-.241.548c.4.518.682.3.917-.2m-3.928-4.9.206.373c.556.113.787-.316.556-.654l-.725.136a.394.394,0,0,0-.037.145m1.833.665-.6-.074a2.6,2.6,0,0,0-.234.43c.33.8.974.269.832-.356M112.9,198.4l.151.051-.171-.093c.007.014.012.026.02.041m-2.285,6.7-.2-.528c-1.237-.1-.271,1.625.2.528m-.023-2.212c-.313-.265-.584-.076-.863-.007-.047.781.99.894.863.007m-12.4,6.642c.808-.136.619-.839-.12-.809-.48.108-.142.624.12.809m14.947-5.008c0,.015.048.016.074.024l.384-.218a3.756,3.756,0,0,0-.016-.441c-.412-.3-.437-.3-.782-.018.018.132.045.263.054.4.013.182.24.115.286.257m2.323-4.682-.363-.235a.834.834,0,0,0-.365.485c.157.4.422.672.764.257a1.212,1.212,0,0,0-.036-.507m-28.145,6.73c.533-.349.418-.7.165-.841l-.278.751.112.09m17.946-6.937-.424.255c-.26,1.246,1.622.22.424-.255m-1.426,1.58.184.258c.309.128.517-.131.674-.354.128-.666-.869-.509-.859.1M90.066,216.656c-.123.235-.357.57.106.579l.136.276c.822-.189.362-1.029-.243-.855M88.557,202.84l-.232.629c.6-.05.529-.391.232-.629m6.89-.349c.694-.586-.455-1.223-.666-.4a.681.681,0,0,0,.666.4M94,210.743a.829.829,0,0,0-.124.665.455.455,0,1,0,.495-.756l-.371.091m19.124-11.06c-.444.017-.458.87.055.846.6-.031.479-.82-.055-.846M94.187,212.627a.334.334,0,0,0-.285.246,1.584,1.584,0,0,1,.285-.246M109,197.7c-.326.193-.26.753.161.73.786.105.344-1.124-.161-.73M85.717,212.052c-.039-.31-.225-.421-.418-.391l-.257.694a.409.409,0,0,0,.675-.3m4.168-8.839c.355.606.766.322.831-.285a.451.451,0,0,0-.831.285m14.3.348.353-.182c.024-.123.047-.242.073-.376-.326-.485-.615-.575-.812.06.15.177.254.313.386.5m-10.7,6.83a.674.674,0,0,0,.081-.728.587.587,0,0,0-.767.385c.074.328.441.39.686.343M87.34,218.41l.379-.2c.045-.63-.678-.937-.858-.189.157.113.21.352.479.389m18.534-15.1c.54.395.928.049.631-.554-.36-.11-1.113.151-.631.554m-5.735,6.234c.134-.186.375-.186.515-.38-.177-.193-.114-.552-.374-.591l-.436.364c-.005.321-.005.321.3.608m-9.88-7.988.308-.2v-.278l-.711.133a.606.606,0,0,0,.4.35m1.627-.644c-.016.708,1.06.78.78-.129-.065-.02-.137-.044-.211-.063l-.517.1a.394.394,0,0,0-.052.1m8.766,6.329c0-.435-.016-.458-.511-.66-.645.556-.125,1.119.511.66m13.659-7.672.216-.321-.618-.334c-.092.319-.014.666.4.655m-12.073,9.073-.415.225a.731.731,0,0,0,.214.563l.6-.227c.031-.17-.063-.381-.4-.56m-14.916-1c-.771.267-.342.965.31.7.308-.335.136-.662-.31-.7M86.93,212.2c.269.669.921.075.635-.441-.386-.249-.82-.05-.635.441m2.08-9.8c.923.224,1.033-.921.132-.652-.365.055-.265.393-.132.652m12.26,1.181c-.513.149-.591.772-.045.9.6-.065.466-.663.045-.9M83.159,219.606c-.313.089-.049.5-.031.718.244.267.514-.1.686-.278-.032-.4-.285-.527-.655-.44m12.8-8.914a2.922,2.922,0,0,0-.016.658c.822.45,1.065-1.114.016-.658m-4.4,5.719c.283-.291.142-.6-.168-.863-.469.193-.508.272-.38.785.184-.016.345.15.548.078m14.926-16.919a.478.478,0,0,0-.1-.795c-.141.121-.366,0-.53.161-.01.392.168.773.627.634m-15.495,6.262c-.443.614.43.814.843.4-.253-.282-.457-.716-.843-.4m3.6,1.507c.338-.42-.33-.834-.7-.473-.167.435.409.921.7.473m-2.316,5.4c-.3-.16-.347.252-.405.444.185.361.669.486.877.07.085-.266-.309-.372-.471-.514m-3.352,9.306c-.156.291.131.354.394.389.084-.212.168-.422.252-.629-.02-.043-.039-.084-.053-.117-.256-.349-.427.2-.592.357m18.6-19.508c.182-.379.133-.535-.25-.794-.144.07-.427.108-.344.344,0,.09-.123.206-.169.3a.768.768,0,0,0,.763.146m-4.913.8c.184-.3-.227-.345-.351-.548-.214-.192-.367.221-.506.359.1.409.653.584.858.188m17.5-.6a.524.524,0,0,0-.264.245l.475-.17a.762.762,0,0,0-.211-.076M86.24,218.612c-.055.205-.294.311-.348.573l.507.31c.249-.136.249-.136.4-.516a.767.767,0,0,0-.557-.366M101.3,209.57a4.542,4.542,0,0,0-.4.291l.562-.214a.33.33,0,0,0-.162-.077M109.8,199v.27c1.132.84,1.115-1.186,0-.27m-14.164,1.124-.728.136c.275.582.734.248.728-.136m6.174,6.889a1.554,1.554,0,0,0,.174.334c.38.181.672.111.712-.338a.737.737,0,0,0-.584-.343,1.305,1.305,0,0,0-.3.348m2.705.3c.229-.677-.351-.906-.7-.379a.4.4,0,0,0,.7.379m10-4.225h0c.149-.54-.645-.544-.739-.1-.1.467.863.77.739.1m-7.9,1.618c-.269-.219-.435,0-.622.092-.042.184.093.37-.075.518-.037.033.058.153.113.129.229-.076.359.083.6.014a3.606,3.606,0,0,0-.016-.754m-18.323,2.833c.628-.177.666-.885-.085-.791-.337.464-.324.591.085.791m15.162-3.063c.568-.777-.287-1.118-.69-.4a.766.766,0,0,0,.69.4m2.078-6.2-.626.117a.553.553,0,0,0,.626-.117m7.145.772c-.247-.342-.543-.487-.885-.169.06.621.709.89.885.169m-13.921,2.239a1.025,1.025,0,0,1-.195-.594h-.482c-.545.706.062.818.677.594m-12.48,12.154.452-.273c-.151-.581-.215-.432-.668-.493-.421.295-.2.622.216.766m25.02-7.848c-.421,0-.586.282-.443.569l.707-.258a.562.562,0,0,0-.264-.311m-5.455,1.1c-.033.133-.062.251-.095.388.115.187.645.583.675.217-.034-.152.119-.253.19-.354-.094-.3-.521-.359-.77-.252M87.02,213.722l-.131.362c.14.551.65.37.89.008-.262-.412-.262-.412-.759-.37m11.252-6.166a1.8,1.8,0,0,0,.459-.457c-.429-.732-1.573-.077-.459.457m12.221-10.207-.454.085.109.145c.214-.05.281-.069.345-.23m-.886,4.733a.83.83,0,0,0-.38-.484c-.245.094-.279.326-.442.485.172.449.773.6.822,0m1.482.383c.536.114.69-.585.2-.8-.507.058-.684.564-.2.8m5.584.683c-.111-.245-.111-.245-.4-.465a2.087,2.087,0,0,1-.34.089c-.342.655.423,1,.743.377m-23.658,8.612c-.023.149-.043.268-.062.394l.336.29c.815-.115.464-1.181-.274-.685m.636-3.49c.087-.449.081-.46-.359-.631-.817.267-.269,1.067.359.631m-.993.612c-.158-.449-.8-.225-.858.193.2.475.993.343.858-.193m-.967,5.154a.392.392,0,0,0-.747-.1c-.276.624.644.775.747.1m7.7-14.335a.867.867,0,0,0-.546.308c.076.556.792.728.9.078a1.223,1.223,0,0,1-.351-.386M96.9,209.989l.167.468c1.15.23.352-1.551-.167-.468m-5.158,1.049c.241.126.359.351.605.383.156-.131.338-.229.4-.463-.236-.507-.69-.287-1.009.079M89.578,218.4l.176-.443c-.744-.832-1.394.553-.176.443m12.066-10.119c.01-.327-.022-.57-.344-.689l-.366.307c-.055.315.126.34.239.581.167.205.352-.105.471-.2M92.7,207.082c-.113-.5-.458-.478-.811-.222-.085.626.626.83.811.222m-4,9.633c-.419-.132-.752-.193-.792.351.242.063.344.332.594.345.3-.165.208-.423.2-.7m3.074-8.854c-.568-.794-1.323.612-.368.583.194-.143.119-.429.368-.583m-6.766,14.323c.214.06.369.19.571.173l.147-.161c-.043-.848-1.07-.827-.718-.012m17.931-14.414c-.035.271-.058.719.252.773.148-.146.378-.187.46-.426-.02-.443-.342-.513-.712-.347m13.832-5.571c.141.266.456.228.7.178.6-.292-.542-1.235-.7-.178M86.1,217.394c.257.081.417-.069.612-.17.128-.531-.4-.666-.82-.467a1.748,1.748,0,0,1,.208.636m-1.184,2.692c.266.437.787.265.824-.247-.3-.388-.9-.308-.824.247m26.356-15.693c.171-.235.44-.215.325-.606-1.029-.6-.864,1.074-.325.606m-2.561-3.27c-.181-.311-.181-.311-.4-.438-1.037.3-.115,1.3.4.438m-11.458-.638c.565-.13.584-.467.276-.714l-.518.1a.561.561,0,0,0,.241.617m19.327.434c-.12-.338-.759-.308-.731.122.038.781.781.355.731-.122M85.288,217.562c-.509.428-.474.757.223.842a.381.381,0,0,0,.2-.5l-.42-.345m.735-6.645c-.372.193.206.625.473.519.4-.37.336-.647-.189-.8-.089.117-.14.232-.285.282m4.162-6.166-.224.34c.167.5.318.423.715.268.2-.4-.056-.724-.492-.609m18.079-.162-.434.274a.415.415,0,0,0,.1.423c.681.334.971-.391.337-.7m7.21-.216c.195-.835-.67-1.038-.726-.131a.978.978,0,0,0,.726.131M96.9,202.256l.533.256c.754-.678-.615-1.314-.533-.256m14.648-4.287c-.046-.164-.254-.421-.4-.212-.07.239-.4.177-.428.443.115.273.384.223.6.3.183-.158.388-.284.222-.531M93.293,213.621c-.492.171-.493.456-.339.64.128-.225.253-.433.371-.617l-.032-.023m14.731-6.83c-.19.129-.173.3-.167.468l.822-.3c-.2-.205-.457-.118-.655-.165m-19.3,4.227c-.225-.389-.316-.417-.726-.244-.037.154-.073.308-.113.475.356.363.61.124.839-.231m-.388-5.465a1.065,1.065,0,0,0,.434-.52c-.5-.863-1.247.309-.434.52m25.556-.783a.459.459,0,0,0-.134.333l.709-.257c-.115-.161-.2-.148-.575-.076m4.8-2.682c.092.1.192.215.277.315l.451-.03.235-.355-.511-.276a1.537,1.537,0,0,0-.158-.017l-.293.364m-6.127-.749c.127-.553-.548-.837-.777-.255.229.445.369.489.777.255m-5.636-2.857.32.1c.39-.341.408-.363.242-.675l-.653.122a.491.491,0,0,0,.091.45M89.7,210.23a.557.557,0,0,0-.207-.586c-.968.248-.614,1.112.207.586m.849-1.612c-.722.006-.858.938-.019.742l.23-.333-.211-.409m14.566-.949c-.3.262-.3.262-.266.571.062.023.125.046.187.065l.66-.246c-.189-.155-.312-.382-.582-.391M84.989,214.09c.308.514.989.122.612-.462a.408.408,0,0,0-.612.462m10.505-3.67.205-.393c-.1-.379-.933-.479-.807,0,.192.259.185.483.6.394m11.788-10.749c-.314.138-.314.138-.461.349l.206.376a.648.648,0,0,0,.694-.306,1.479,1.479,0,0,0-.439-.419M110.1,201.5a1.04,1.04,0,0,0,.511-.4l-.225-.5c-.423.034-.737.61-.287.895M85.274,216.4c.269-.139.3-.372.338-.615l-.182-.227c-.356.023-.457.271-.608.466a.831.831,0,0,0,.452.377m19.554-10.251a.358.358,0,0,0,.287.294c1.048-.339.348-1.362-.287-.294m-12.154-1.335-.316-.162a.526.526,0,0,0-.471.427c.241.508.989.338.787-.265M88.431,220.6a.553.553,0,0,0-.5.366l.054.219a.5.5,0,0,0,.819-.323l-.376-.261m.749-12.931a.639.639,0,0,0-.282.4.425.425,0,0,0,.786.1l-.114-.425-.39-.077m20.258-1.208c-.017-.11-.03-.188-.043-.266l.231-.274c-.37-1.021-1.29.665-.188.54M86.693,221.146c-.006-.572-.955-.681-.735.026.2.334.464.284.735-.026M84.812,214.9c-.3-.326-.516-.292-.684-.072l-.152.412a.542.542,0,0,0,.836-.34m33.636-12.148c-.377-.234-.642.113-.6.485a.39.39,0,1,0,.6-.485M89.228,219.7c-.127.053-.309.1-.3.26l.309.526c.511-.037.586-1.152-.014-.787m.18-16.028c-.295.088-.486.246-.469.57.243.428.735.224.741-.231a.774.774,0,0,0-.272-.338M83.533,218.4l.107-.4c-.125-.316-.248-.506-.579-.29l-.076.206c-.029.362.083.6.548.48m28.264-15.3c.118.212.282.388.535.244.8-.318-.426-1.129-.535-.244M83.622,216.245l.114-.34,0,0-.131.353.021-.01m4.983,2.464-.359-.115c-1.044.635.679,1.267.359.115M84.326,220.6c-.182.077-.345.143-.406.325l.232.411c.713-.1.863-.365.174-.736m4.258-11.868a.568.568,0,0,0-.689.368c.144.551,1.2.217.689-.368m-1.394,6.909-.238.357.336.425a.4.4,0,1,0-.1-.782m2.794-4.889c-.019.361.017.439.318.7.714-.159.275-1.064-.318-.7m24.608-9.638-.125-.334a2.251,2.251,0,0,1-.416-.092,2.293,2.293,0,0,0-.27.5c.175.38.635.23.811-.075m.509,1.422c.39.23.549-.58.156-.653-.029-.1-.137-.137-.237-.21a.535.535,0,0,0,.081.863m-8.591-1.135c.37-.557-.2-.871-.671-.542.132.37.209.678.671.542M83.591,222.3c-.016-.221.24-.373.1-.614l-.4-.087c-.345.181-.337.383-.173.7Zm24.6-22.736c.2-.015.161-.181.22-.277s.192-.16.2-.3a.863.863,0,0,0-.319-.3c-.582.025-.435.62-.1.877m-18.114,19.7c.346.185.562,0,.613-.372-.335-.43-1.219-.04-.613.372m-2.312.8c-.184-.415-.284-.462-.7-.321A2.808,2.808,0,0,1,87,220.3c.3.054.568.076.764-.239m8.465-17.291c-.507.147-.3.479.039.7.572,0,.512-.841-.039-.7m4.169-3.279c-.02-.166.071-.255.239-.3l-.676.126a.512.512,0,0,0,.437.178M86.272,209.521a1.006,1.006,0,0,0,.424-.607c-.1-.162-.2-.218-.3-.211l-.262.708a.79.79,0,0,0,.142.11m7.287-3.146c.367-.366-.078-.746-.479-.533-.518.31.1.658.479.533m-9.708,12.676c.178.179.565.423.749.144a.985.985,0,0,0-.153-.49c-.468-.05-.468-.05-.6.346m5.322-3.324-.2.3c.342.432.415.438.8.075-.2-.419-.211-.428-.6-.371m1.834,2.556c.079-.18.157-.356.234-.53-.251.024-.476.24-.234.53M98.9,201.9c.124.226.028.514.317.655.507-.359.522-1.087-.317-.655m9.9-1.935c.067.34.209.434.622.343l.1-.4c-.3-.338-.407-.328-.722.057m-4.522,4.65-.383.2a.8.8,0,0,0,.5.651c.343-.118-.015-.394.138-.646l-.258-.208m-13.4,5.469c.175.248.506.449.7.117.2-.46-.661-.717-.7-.117m-6.266,7.193a.85.85,0,0,1,0-.484c-.684-.425-.88,1.041,0,.484m4.491-7.617c.031-.288-.225-.222-.054.015l.054-.015m-6.867,28.818v.249l-.178-.048a.631.631,0,0,1-.285.361.521.521,0,0,0,.463.267l.425.07a.758.758,0,0,0,.038-.9Zm0-9.706c-.526-.192-.506.7,0,.664.382.15.6-.3.467-.632-.153-.082-.255-.267-.467-.281Zm.575,8.112c-.178-.181-.308-.385-.575-.4v.332c-.122.049-.277-.024-.392.108a.9.9,0,0,0,.392.389v.083c.341.122.44-.293.575-.516m-.266,3.639-.309-.054v.166c-.28-.055-.347.137-.406.322.075.232.111.52.406.508v-.083a.356.356,0,0,0,.155.013l.231-.674-.077-.2m.06-13.781-.369.039-.173-.039c-.208.236-.285.762.173.7a.88.88,0,0,0,.464-.008c.242-.29.016-.482-.095-.695m-.369,7.837v.083c-.212.01-.284.17-.357.311.1.184.1.466.357.436a.478.478,0,0,0,.465-.234c-.03-.319-.106-.573-.465-.6m0-1.908v.083l-.2-.043c-.129.321-.19.524.2.624.657.16.64-.722,0-.664m6.471-9.623h.083c.027-.357-.244-.434-.473-.534-.321.049-.352.288-.439.534H87.8c.024.477.886.531.913,0m-3.9,3.832-.33-.271c-.924.011-.6,1.12.224.972.191-.212.1-.465.106-.7m1.489,2.656c.7-.06.371-1.27-.177-.9-.379.45-.334.617.177.9m-1.085-3.893c-.84.428.138,1.318.607.445-.225-.24-.172-.693-.607-.445m-1.783,3.9-.394.2c-.584,1.224,1.6.71.394-.2m2.159-1.893c-.817-.217-.926,1.1-.03.783l.247-.365-.218-.418m2.113-3.81c-.132-.1-.277-.366-.465-.221-.616.537-.228.762.383.885.072-.257.3-.457.081-.664m-3.917,12.24c-.008-.957-1.1-.516-.793.256.3-.046.609.048.793-.256m2.143-10.814c.338.309.427.23.749.034.44-.5-.814-1.192-.749-.034m-2.256,2.6c-.47-.568-.751-.18-.843.408.288.246,1.157.047.843-.408m3.347.5.274-.738a.931.931,0,0,0-.129.019.471.471,0,0,0-.145.719M85.96,231.25l.194-.536a.4.4,0,0,0-.194.536m1.56-5.637c-.368-.188-.447.327-.677.485.341.747,1.324.072.677-.485m-4.51.165c-.018.3-.092.6.259.749.752-.159.424-1.278-.259-.749m4.81-.742a.5.5,0,0,0,.319.342q.145-.379.289-.752a1.268,1.268,0,0,0-.117-.083,4.581,4.581,0,0,0-.491.493m-3.1,6.093c-.069-.276-.167-.491-.5-.5l-.4.318c.17.432.7.771.9.178m-1.046,3.028a.463.463,0,0,0-.284-.545c-.362.055-.432.309-.478.588.4.3.459.514.762-.043m-.809,3.9c.1.355.366.411.578.293l.2-.574c-.354-.19-.444-.14-.777.281m1.062-13.194a.485.485,0,0,0,.5.612c.15-.03.2-.072.175-.247.31-.565-.275-.576-.678-.365m2.179,1.888c-.28.437-.041.836.465.7.177-.147.114-.288.076-.434-.041-.352-.266-.311-.541-.265m-2.56,4.965c-.189-.233-.689-.049-.57.26a.927.927,0,0,1,.071.476c.342-.139.658-.009.548-.48a.262.262,0,0,0-.049-.257m1.659-8.027-.233.433c.05.329.527.529.628.158-.01-.274.047-.7-.395-.59m-.22,8.322c-.136.6.646.492.649.024-.081-.383-.733-.544-.649-.024m-1.029,2.84c.057.162.108.309.161.456a.788.788,0,0,0,.4-.012l.153-.433c-.111-.176-.385-.277-.71-.011m-.245-11.014c-.339-.169-.67-.2-.767.231.453.556.64.417.767-.231m1.191,6.154.518.455a.731.731,0,0,0,.3-.322c-.211-.552-.622-.545-.817-.134m-.277-.728c.151-.247-.054-.566-.3-.7a.632.632,0,0,0-.34.456c.139.32.38.293.639.247m-.218,3.462-.355.229c.365.8,1.1.026.355-.229M82.239,221.3c.7,0,.646-.682,0-.747a2.011,2.011,0,0,0-.2-.081l-.21.568c.036.2.112.348.407.26m-.654.408-.242.654.109.021a.43.43,0,0,0,.133-.675m.654,3.74v-.083l.237.086c.45-.264.233-.8-.237-.833v.083c-.483.02-.378.616,0,.747m0,5.973v.083c.613.161.512-.943,0-.912v.249c-.194-.048-.276.118-.446.208.125.186.2.372.446.373m-5.558,13.748c-.153-.451-.172-.842-.754-.676-.44.538.292,1.251.754.676m.26-4.7h.434c.7-.776-.457-1.37-.608-.325l.175.325m-2.063,3.779a.559.559,0,0,0,.782-.038c.156-.993-.941-.79-.782.038m5.837-5.29c-.14-.477-.924-.52-.953.04.282.463.906.5.953-.04m-6.441,7.6.417.615c.1-.211-.009-.528-.417-.615m-.648-2.231-.233-.226c.138-.153.362-.253.274-.5a.579.579,0,0,0-.157-.042l-.33.893a.673.673,0,0,0,.445-.127m3.062-9.366-.131.355a2.53,2.53,0,0,0,.228-.174,1.848,1.848,0,0,0-.1-.181m.169,12.992c.231.179.494.612.807.315.328-.555-.669-1.241-.807-.315m2.324.457c.289.016.373-.2.507-.345.216-.207-.19-.353-.313-.5-.237-.183-.474.1-.517.327a1.308,1.308,0,0,0,.323.515m-.328,1.393a.388.388,0,0,0,.546.491l.169-.513a.143.143,0,0,1-.006-.074c-.031-.368-.674-.182-.71.1m.22-6.219c-.2.137-.289.232-.143.437.106.219.153.409.444.435l.39-.31c-.007-.408-.353-.473-.692-.562m1.563,1.1c-.537-.367-1.113.194-.571.677.4.048.6-.149.571-.677m.724-5.093c-.412-.395-.532.5-.407.776.39.136.554-.176.825-.375-.176-.127-.362-.186-.418-.4m-2.834,5.071c-.5-.138-.818.225-.557.695.367.221.974-.253.557-.695m1.991-11.992c-.47-.045-.9.151-.565.649l.406.1c.2-.089.247-.291.37-.428l-.21-.324m-1.858.077c-.142-.257-.454-.036-.686-.015l-.118.315c.149.209.265.406.532.255.4-.107.444-.186.272-.554m.357-2.344c.619.083,1.136-.632.19-.778l-.29.136c.081.234-.02.462.1.642m-.545,8.128c-.414-.11-.635.366-.508.684.2.05.314.136.531.095l.239-.346a4.713,4.713,0,0,1-.261-.433m.969-10.88c-.016-.005-.032,0-.048-.008l-.287.778c.381.143.709-.371.336-.77m-.106,4.787c.146-.053.272-.1.3-.279-.149-.667-.438-.63-.881-.21.075.335.366.362.578.49m-4.587,12.637a.447.447,0,0,0-.852-.161l.205.119-.055.22c.182.34.614.176.7-.178m3.764,4.169.215-.313c-.684-1.074-1.426.5-.215.313m.707-9.658c-.332.084-.418.837.06.742,0,0,0-.007,0-.011.618.13.5-.832-.061-.732m-1.681-5.251c.229-.358.169-.393-.105-.638a.236.236,0,0,0-.25-.072l-.219.592a.8.8,0,0,0,.574.117m.739-2.82.3-.471c-.051-.28-.162-.413-.282-.442l-.3.8a.278.278,0,0,0,.272.114m-.158,9.128c0,.227-.16.35-.264.533a.558.558,0,0,0,.591.21c.368-.217.015-1.239-.326-.742m3.534,1.341c-.234-.609-.8-.336-.8.185.171.431.757.2.8-.185m-3.984,2.2c-.035-.139-.067-.27-.1-.418-.479-.168-.479-.168-.747.172.018.194.183.293.276.465.191-.1.422-.035.574-.219m2.369-3.479-.113.455c.69.958,1.142-1.04.113-.455M75.53,247.89c-.209-.084-.023-.3-.161-.4-.155-.018-.242.1-.316.22l.42.618c.119-.14.218-.29.057-.434m1.762-12.328c-.238.242-.65.459-.267.745.167.192.329.091.506-.02.328-.206-.034-.566-.239-.725m3.657.232c.046.27-.078.775.334.691.792-.328.373-.875-.334-.691m-.773-8.347c.482.1.491-.341.338-.659-.618-.357-.873.23-.338.659m-4.015,19.111c-.311.159-.311.159-.276.608.712.37,1.159-.415.276-.608m.512-9.453c-.111-.4-.312-.591-.627-.4l-.129.35c.09.385.534.484.756.05m2.176,14.855s0,.006,0,.01l.1-.312c-.071.04-.114.124-.1.3m-2.936-8.815a.748.748,0,0,0,.487.32c.3-.4.308-.478.11-.761-.444.017-.562-.132-.6.442m4.556-18.411-.258.7c.466-.214.467-.58.258-.7m-1.428,11.6c.4.058.8-.2.517-.6-.229.054-.674-.142-.707.168-.011.167-.03.409.19.435m-.614,1.043c.209-.182.333-.237.194-.679-.281-.089-.645-.109-.728.26.171.154.284.562.534.418m3.165-3.165c.2-.183-.159-.294-.3-.4.395-.608-.658,0-.407.312.058.468.438.261.707.091m.043-8.374c-.345-.275-.623.084-.865.312.363.424,1.015.371.865-.312m-6.676,15.9c-.174.679.49.754.721.19a.4.4,0,0,0-.721-.19m4.8.246-.241-.342c-.2.044-.414-.051-.634.1.083.611.507.766.875.243m.591-11.353c-.615-.017-.507.361-.309.769.47.073.789-.559.309-.769m-3.5,11.3.384.515c.288-.139.288-.139.454-.468-.239-.306-.624-.483-.838-.047m1.44,10.533h0l.274.4.035-.107a.822.822,0,0,0-.309-.3m-2.646-14.654-.191.516c.28-.141.3-.366.191-.516m-1.262,3.583a.548.548,0,0,0,.306-.4.377.377,0,0,0-.137-.22l-.22.6c.018.008.032.02.051.027m7.265-9.664c-.5-.112-1.022-.061-.608.541.413.287.555-.206.608-.541m-2.117,13.841c-.6-.161-.748.345-.376.759.49-.282.5-.31.376-.759m-.063-7.953c-.247.019-.376.212-.546.349-.007.093-.014.186-.023.309.313.311.6-.058.783-.343-.073-.133-.093-.246-.215-.315M76.6,248.974c0-.6-.564-.49-.691,0l.151.222c.233.15.575.136.54-.222m4.283-20.894.052.324c.457.194.562-.423.717-.7-.37-.29-.558.1-.769.377m-3.478,18.268c.17-.282.281-.545,0-.794l-.417.149c0,.37-.1.822.42.645M80.926,223.8c-.1.708.348.78.688.216-.044-.351-.437-.4-.688-.216m-1.763,9.832-.276.341.073.264c.6.075.646.06.767-.239-.249-.06-.265-.416-.563-.366m1.69,10.466a.85.85,0,0,0,.555.194l.175-.516c-.225-.26-.625-.016-.73.322m-.624,2.513-.388.206c-.061.376.2.4.438.466l.142-.057.112-.334a1.307,1.307,0,0,0-.3-.281m-2.262.591c.223-.054.346.113.546.072.489-.726-.83-.91-.546-.072m2.061-18.389c-.086.394.046.65.462.554.611-.266-.02-.707-.462-.554m.5,8.5c.106-.5-.012-.775-.333-.737.014.07.027.134.033.161-.347.438-.35.88.3.575m-4.177,3.383c-.009.1-.016.185-.027.316-.552-.536-.556.3.054.387.24-.13.247-.371.382-.588-.124-.081-.227-.174-.409-.114m3.657-5.972.039.217-.245.162c.111.118.244.291.4.216.112-.156.334-.12.455-.289a.441.441,0,0,0-.646-.306M78,251.261c.525-.071.99-.5.266-.677-.311-.084-.364.462-.266.677m.261-8.775c-.191.169-.5.357-.179.57.2.162.318.358.6.2a2.351,2.351,0,0,0-.422-.769m.206-7.217c.638-.319-.384-1.03-.533-.082.275.174.275.174.533.082M75.76,245.816l-.2-.218c-.213.2-.549.08-.667.423.261.475.734.184.864-.2m5.231-8c-.329.5.622.758.673.16-.3-.08-.339-.544-.673-.16m-4.649.875-.481.288c.118.493.878.457.776-.094l-.3-.195m-2.44,4.433c.319.451.458.382.784-.013-.192-.331-.69-.465-.784.013m3.134,6.745v.373c.182.009.333.219.548,0a3.2,3.2,0,0,1-.088-.712c-.245,0-.333.19-.46.336M81.6,229.98c-.107-.159-.194-.293-.36-.339a.942.942,0,0,0-.374.553,1.163,1.163,0,0,0,.348.176l.385-.39m-1.63,12.746c-.162.337.194.558.477.483.408-.383-.042-.683-.477-.483m-4.889-2.993-.132.425c.536.731.857-.476.132-.425m2.018-2.042c-.2.1-.159.257-.143.437.191.051.341.163.53.138-.092-.167-.092-.167-.072-.467l-.316-.109m-2.583,5c-.029-.141-.089-.082-.187-.076.018.124.089.089.187.076" transform="translate(-73.182 -197.349)" fill="#421b36"/>
            </g>
          </g>
        </g>
      </g>
    </g>
  </g>
</svg>
