<svg xmlns="http://www.w3.org/2000/svg" xmlns:xlink="http://www.w3.org/1999/xlink" width="152.125" height="143.136" viewBox="0 0 152.125 143.136">
  <defs>
    <clipPath id="clip-path">
      <rect id="長方形_52" data-name="長方形 52" width="110.619" height="103.107" fill="none"/>
    </clipPath>
    <clipPath id="clip-path-2">
      <rect id="長方形_53" data-name="長方形 53" width="16.032" height="16.674" fill="none"/>
    </clipPath>
  </defs>
  <g id="グループ_88" data-name="グループ 88" transform="translate(-960.618 -530.672)">
    <g id="グループ_77" data-name="グループ 77" transform="translate(952.742 546.84) rotate(-16)">
      <g id="グループ_56" data-name="グループ 56" transform="translate(0 28.574)">
        <g id="グループ_55" data-name="グループ 55" clip-path="url(#clip-path)">
          <path id="パス_119" data-name="パス 119" d="M9.861,40.21a17.211,17.211,0,1,0,1-24.319,17.21,17.21,0,0,0-1,24.319" transform="translate(66.291 -1.521)" fill="#7fb8db"/>
          <path id="パス_120" data-name="パス 120" d="M16.057,34.993,13.688,20.669,27.77,24.205l-3.316,3.053,7.6,8.253-5.081,4.68-7.6-8.253Z" transform="translate(66.712 -2.772)" fill="#fff"/>
        </g>
      </g>
      <path id="パス_121" data-name="パス 121" d="M30.29,40.417S6.15,28.438,0,0" transform="matrix(-0.839, 0.545, -0.545, -0.839, 71.004, 33.896)" fill="none" stroke="#0c1949" stroke-linecap="round" stroke-miterlimit="10" stroke-width="3" stroke-dasharray="5 10"/>
      <path id="パス_122" data-name="パス 122" d="M30.29,0S6.15,11.979,0,40.417" transform="translate(130.881 114.376) rotate(140)" fill="none" stroke="#0c1949" stroke-linecap="round" stroke-miterlimit="10" stroke-width="3" stroke-dasharray="5 10"/>
      <g id="グループ_58" data-name="グループ 58" transform="translate(92.205 141.85)">
        <g id="グループ_57" data-name="グループ 57" clip-path="url(#clip-path-2)">
          <path id="パス_123" data-name="パス 123" d="M2.149,13.793a12.784,12.784,0,0,0,1.846-.183,2.688,2.688,0,0,1,2.74.842c.362.381.756.733,1.153,1.081a11.609,11.609,0,0,0,1.125.907,1.021,1.021,0,0,0,1.656-.588c.069-.206.08-.431.131-.644.235-.981.5-1.957.7-2.944a1.535,1.535,0,0,1,.818-1.118c.731-.4,1.452-.819,2.169-1.244a9.485,9.485,0,0,0,1.21-.79.859.859,0,0,0,.083-1.288,3.9,3.9,0,0,0-.8-.668c-.815-.517-1.629-1.041-2.479-1.5a1.836,1.836,0,0,1-1.021-1.426c-.129-.778-.3-1.548-.481-2.317A6.665,6.665,0,0,0,10.621.662.981.981,0,0,0,9.1.2a10.653,10.653,0,0,0-1.138.89q-1.005.848-1.992,1.72A1.006,1.006,0,0,1,5,3.081C3.933,2.813,2.827,2.9,1.74,2.723.161,2.47-.376,3.27.273,4.729c.391.881.757,1.777,1.185,2.64a1.922,1.922,0,0,1,.027,1.765c-.4.879-.766,1.772-1.148,2.657-.087.2-.19.4-.261.6a.978.978,0,0,0,.9,1.39c.391.039.79.007,1.168.007" transform="translate(0 0)" fill="#eb8813"/>
          <path id="パス_124" data-name="パス 124" d="M9.887,10.1A9.965,9.965,0,0,0,8.45,6.9a1.515,1.515,0,0,0-.5-.406.818.818,0,0,0-1.168.792,1.915,1.915,0,0,0,.113.51c.309.865.621,1.729.946,2.588a1.5,1.5,0,0,0,.542.726A.957.957,0,0,0,9.887,10.1" transform="translate(0.269 -0.859)" fill="#fff"/>
          <path id="パス_125" data-name="パス 125" d="M10.845,9.965a2.675,2.675,0,0,0,.39,1.175.935.935,0,0,0,1.133.418,1.03,1.03,0,0,0,.564-1.083,2.816,2.816,0,0,0-.6-1.3.747.747,0,0,0-.816-.287.833.833,0,0,0-.613.623,2.888,2.888,0,0,0-.056.451" transform="translate(-6.303 -1.188)" fill="#fff"/>
        </g>
      </g>
    </g>
  </g>
</svg>
