<svg xmlns="http://www.w3.org/2000/svg" xmlns:xlink="http://www.w3.org/1999/xlink" width="127.972" height="237.168" viewBox="0 0 127.972 237.168">
  <defs>
    <clipPath id="clip-path">
      <rect id="長方形_45" data-name="長方形 45" width="59.85" height="229.927" fill="none"/>
    </clipPath>
    <clipPath id="clip-path-3">
      <rect id="長方形_43" data-name="長方形 43" width="59.85" height="27.617" transform="translate(0 202.31)" fill="none"/>
    </clipPath>
  </defs>
  <g id="グループ_39" data-name="グループ 39" transform="matrix(0.951, 0.309, -0.309, 0.951, 71.051, 0)">
    <g id="グループ_38" data-name="グループ 38" clip-path="url(#clip-path)">
      <g id="グループ_37" data-name="グループ 37">
        <g id="グループ_36" data-name="グループ 36" clip-path="url(#clip-path)">
          <path id="パス_31" data-name="パス 31" d="M29.562,94.826c-2.316.558-4.718-1.532-5.068-3.68a4.731,4.731,0,0,1,3.774-5.06,4.644,4.644,0,0,1,5.006,3.683c.432,2.367-1.66,5.035-3.712,5.057" fill="#f54f59"/>
          <path id="パス_32" data-name="パス 32" d="M15.214.077a1.08,1.08,0,0,1,1.231.3c.343.371.645.778.964,1.171.6.747,1.219,1.487,1.809,2.245a2.034,2.034,0,0,0,1.57.785c1.11.077,2.218.177,3.326.276a6.035,6.035,0,0,1,.9.129,1.164,1.164,0,0,1,.762,1.871c-.1.174-.241.325-.354.493-.706,1.048-1.4,2.108-2.121,3.145a1.593,1.593,0,0,0-.251,1.424c.331,1.27.608,2.554.9,3.834a2.833,2.833,0,0,1,.1.744A1.162,1.162,0,0,1,22.707,17.6a17.87,17.87,0,0,1-1.762-.455c-.78-.214-1.564-.42-2.337-.662a2.264,2.264,0,0,0-2.019.3c-.936.6-1.894,1.168-2.845,1.746a4.761,4.761,0,0,1-.794.441,1.175,1.175,0,0,1-1.6-.922,12.914,12.914,0,0,1-.1-1.513c-.042-.858-.121-1.718-.1-2.577a2.285,2.285,0,0,0-.989-2.063C9.3,11.275,8.525,10.54,7.719,9.85a6.33,6.33,0,0,1-.675-.61A1.2,1.2,0,0,1,7.24,7.5a1.613,1.613,0,0,1,.537-.272c1.325-.355,2.47-1.17,3.809-1.487a1.733,1.733,0,0,0,1.248-1.2c.411-1.086.859-2.161,1.316-3.228C14.367.8,14.589.268,15.214.077" fill="#25bab1"/>
          <path id="パス_33" data-name="パス 33" d="M16.917,7.794a2.072,2.072,0,0,1,.061.424,10.493,10.493,0,0,1-.647,3.265,1.009,1.009,0,0,1-1.489.57.754.754,0,0,1-.5-.7,8.226,8.226,0,0,1,.8-3.673c.179-.316.4-.6.818-.573a1.139,1.139,0,0,1,.956.69" fill="#fff"/>
          <path id="パス_34" data-name="パス 34" d="M17.919,11.23a2.8,2.8,0,0,1,.3-2,.812.812,0,0,1,.812-.563.944.944,0,0,1,.9.692,3.314,3.314,0,0,1-.15,2.219.931.931,0,0,1-.951.6c-.418-.046-.686-.285-.915-.955" fill="#fff"/>
          <path id="パス_35" data-name="パス 35" d="M29.843,28.176a1.5,1.5,0,0,1-1.268-.7c-.417-.657-.873-1.308-1.355-1.933A1.5,1.5,0,1,1,29.6,23.714c.538.7,1.047,1.424,1.513,2.159a1.5,1.5,0,0,1-1.265,2.3Z" fill="#0c1949"/>
          <path id="パス_36" data-name="パス 36" d="M32.23,68.363A1.5,1.5,0,0,1,30.8,66.414c.444-1.416.846-2.876,1.2-4.339a1.5,1.5,0,0,1,2.918.7c-.365,1.531-.786,3.059-1.251,4.541A1.5,1.5,0,0,1,32.23,68.363Zm2.731-13.522q-.07,0-.141-.007A1.5,1.5,0,0,1,33.466,53.2c.141-1.507.225-3.015.249-4.483a1.5,1.5,0,1,1,3,.049c-.025,1.544-.113,3.13-.261,4.713A1.5,1.5,0,0,1,34.961,54.841Zm-.4-13.775a1.5,1.5,0,0,1-1.477-1.252,39.337,39.337,0,0,0-.974-4.325,1.5,1.5,0,1,1,2.883-.828,42.344,42.344,0,0,1,1.049,4.657,1.5,1.5,0,0,1-1.481,1.749Z" fill="#0c1949"/>
          <path id="パス_37" data-name="パス 37" d="M27.617,79.119a1.5,1.5,0,0,1-1.3-2.248c.384-.668.768-1.382,1.143-2.125A1.5,1.5,0,1,1,30.14,76.1c-.4.792-.81,1.556-1.221,2.271A1.5,1.5,0,0,1,27.617,79.119Z" fill="#0c1949"/>
          <path id="パス_38" data-name="パス 38" d="M33.118,110.716a1.5,1.5,0,0,1-1.1-.475c-1.027-1.1-1.667-1.684-1.673-1.69a1.5,1.5,0,0,1,2.022-2.216c.029.026.724.662,1.842,1.857a1.5,1.5,0,0,1-1.1,2.525Z" fill="#0c1949"/>
          <path id="パス_39" data-name="パス 39" d="M50.159,165.387a1.5,1.5,0,0,1-1.476-1.776c.3-1.583.529-3.19.691-4.774a1.5,1.5,0,1,1,2.984.305c-.171,1.667-.415,3.356-.727,5.021A1.5,1.5,0,0,1,50.159,165.387Zm.87-14.786a1.5,1.5,0,0,1-1.495-1.4c-.11-1.592-.291-3.2-.538-4.79a1.5,1.5,0,0,1,2.964-.461c.26,1.67.45,3.367.567,5.044a1.5,1.5,0,0,1-1.393,1.6C51.1,150.6,51.063,150.6,51.029,150.6Zm-2.872-14.531a1.5,1.5,0,0,1-1.425-1.032c-.5-1.512-1.064-3.036-1.685-4.53a1.5,1.5,0,0,1,2.77-1.152c.65,1.564,1.244,3.161,1.765,4.745a1.5,1.5,0,0,1-1.425,1.969ZM41.981,122.6a1.5,1.5,0,0,1-1.29-.733c-.821-1.378-1.7-2.75-2.621-4.075a1.5,1.5,0,1,1,2.467-1.707c.956,1.382,1.875,2.811,2.731,4.247a1.5,1.5,0,0,1-1.287,2.268Z" fill="#0c1949"/>
          <path id="パス_40" data-name="パス 40" d="M46.691,177.293a1.5,1.5,0,0,1-1.394-2.053c.3-.751.587-1.522.859-2.29a1.5,1.5,0,1,1,2.828,1c-.284.8-.586,1.607-.9,2.392A1.5,1.5,0,0,1,46.691,177.293Z" fill="#0c1949"/>
          <path id="パス_41" data-name="パス 41" d="M59.272,207.98,48.6,227.474a4.721,4.721,0,0,1-6.405,1.873L2.453,207.592A4.721,4.721,0,0,1,.14,202.31a4.633,4.633,0,0,1,.439-1.122L11.25,181.694a4.719,4.719,0,0,1,6.4-1.873L57.4,201.576a4.721,4.721,0,0,1,1.873,6.4" fill="#eb8813"/>
          <g id="グループ_35" data-name="グループ 35" opacity="0.35" style="mix-blend-mode: multiply;isolation: isolate">
            <g id="グループ_34" data-name="グループ 34">
              <g id="グループ_33" data-name="グループ 33" clip-path="url(#clip-path-3)">
                <path id="パス_42" data-name="パス 42" d="M59.272,207.98,48.6,227.474a4.721,4.721,0,0,1-6.405,1.873L2.453,207.592A4.721,4.721,0,0,1,.14,202.31c35,20.257,54.184,7.956,59.705,3.178a4.686,4.686,0,0,1-.573,2.492" fill="#c42d52"/>
              </g>
            </g>
          </g>
          <path id="パス_43" data-name="パス 43" d="M56.9,207.073h-.03l-25.966-.516a3.925,3.925,0,0,1-3.172-1.729l-14.617-21.7a1.5,1.5,0,1,1,2.488-1.676l14.617,21.7a.921.921,0,0,0,.744.405l25.965.516a1.5,1.5,0,0,1-.029,3Z" fill="#0c1949"/>
        </g>
      </g>
    </g>
  </g>
</svg>
