<svg id="グループ_32" data-name="グループ 32" xmlns="http://www.w3.org/2000/svg" xmlns:xlink="http://www.w3.org/1999/xlink" width="133" height="200.402" viewBox="0 0 133 200.402">
  <defs>
    <clipPath id="clip-path">
      <rect id="長方形_42" data-name="長方形 42" width="133" height="200.402" fill="none"/>
    </clipPath>
    <clipPath id="clip-path-3">
      <path id="パス_30" data-name="パス 30" d="M127.191,0c-16,1.1-76.215,5.228-92.055,6.317a1.548,1.548,0,0,0-.882,2.737C39.825,13.7,48.633,20.979,48.661,21l3.147,26.378a1.555,1.555,0,0,0,2.448,1.081l13.591-9.7a1.554,1.554,0,0,1,1.882.056c2.458,1.99,9.219,7.464,12.483,10.1a2.493,2.493,0,0,0,3.4-.241L128.431,2.622A1.559,1.559,0,0,0,127.306,0c-.037,0-.076,0-.115,0" transform="translate(-33.692 0.001)" fill="none"/>
    </clipPath>
    <clipPath id="clip-path-4">
      <rect id="長方形_41" data-name="長方形 41" width="18.578" height="18.75" fill="none"/>
    </clipPath>
  </defs>
  <g id="グループ_31" data-name="グループ 31" clip-path="url(#clip-path)">
    <g id="グループ_25" data-name="グループ 25">
      <g id="グループ_24" data-name="グループ 24" clip-path="url(#clip-path)">
        <path id="パス_20" data-name="パス 20" d="M5.276,99.809a4.88,4.88,0,0,1,5.259,4.677A4.968,4.968,0,0,1,5.761,109.7a4.952,4.952,0,0,1-.485-9.893" transform="translate(0.07 12.28)" fill="#25bab1"/>
        <path id="パス_21" data-name="パス 21" d="M11.983,178.725c.15-1.279.243-2.7.506-4.1a2.483,2.483,0,0,0-.733-2.453c-.722-.721-1.345-1.541-2.006-2.322a12.237,12.237,0,0,1-.855-1.062,1.344,1.344,0,0,1,.843-2.228c.931-.247,1.882-.426,2.831-.605,2.853-.541,2.85-.537,4.315-2.968.439-.73.9-1.451,1.359-2.167a3.238,3.238,0,0,1,.524-.663,1.11,1.11,0,0,1,1.673.025,6.242,6.242,0,0,1,.9,1.229c.6,1.032,1.171,2.08,1.727,3.136a2.345,2.345,0,0,0,1.686,1.288c1.332.29,2.648.654,3.965,1.008a3.885,3.885,0,0,1,1.1.436,1.185,1.185,0,0,1,.323,1.777c-.483.629-1.038,1.205-1.579,1.787-.619.665-1.244,1.325-1.892,1.961a1.813,1.813,0,0,0-.553,1.541q.155,1.956.27,3.914a5.883,5.883,0,0,1-.033,1.357,1.24,1.24,0,0,1-1.782,1.008c-1.114-.426-2.191-.944-3.283-1.43a7.982,7.982,0,0,1-.916-.453,2.241,2.241,0,0,0-2.262-.045c-1.139.512-2.324.922-3.488,1.377-.212.083-.414.191-.63.261-1.224.4-1.98-.161-2.014-1.61" transform="translate(1.054 19.662)" fill="#f54f59"/>
        <path id="パス_22" data-name="パス 22" d="M18.46,167.906a8.616,8.616,0,0,1-1.17,3.511,1.073,1.073,0,0,1-1.336.427,1.163,1.163,0,0,1-.7-1.233,7.535,7.535,0,0,1,1.316-3.266,1.773,1.773,0,0,1,.232-.245,1.046,1.046,0,0,1,1.081-.3c.457.144.527.54.581,1.107" transform="translate(1.875 20.518)" fill="#fff"/>
        <path id="パス_23" data-name="パス 23" d="M21.366,169.99a3.52,3.52,0,0,1-.533,1.678,1.2,1.2,0,0,1-1.458.56,1.377,1.377,0,0,1-.734-1.414,3.147,3.147,0,0,1,.961-1.764,1,1,0,0,1,1.709.513,3.436,3.436,0,0,1,.055.427" transform="translate(2.291 20.763)" fill="#fff"/>
        <path id="パス_24" data-name="パス 24" d="M6.822,100.79a1.5,1.5,0,0,1-1.468-1.817l.022-.1a1.5,1.5,0,1,1,2.931.638l-.021.095A1.5,1.5,0,0,1,6.822,100.79Zm2.85-9.679a1.5,1.5,0,0,1-1.4-2.03c.6-1.586,1.264-3.172,1.979-4.711a1.5,1.5,0,0,1,2.721,1.263c-.684,1.473-1.321,2.989-1.893,4.507A1.5,1.5,0,0,1,9.672,91.111Zm6.792-13.34a1.5,1.5,0,0,1-1.253-2.322c.924-1.411,1.916-2.814,2.946-4.169A1.5,1.5,0,1,1,20.545,73.1c-.988,1.3-1.938,2.644-2.824,4A1.5,1.5,0,0,1,16.465,77.771Zm9.462-11.607a1.5,1.5,0,0,1-1.061-2.56c1.194-1.2,2.446-2.368,3.719-3.485a1.5,1.5,0,0,1,1.978,2.255c-1.224,1.074-2.427,2.2-3.576,3.35A1.5,1.5,0,0,1,25.927,66.164Zm11.585-9.492a1.5,1.5,0,0,1-.827-2.752,46.419,46.419,0,0,1,4.45-2.65,1.5,1.5,0,0,1,1.334,2.687h0a44.6,44.6,0,0,0-4.133,2.467A1.493,1.493,0,0,1,37.512,56.672Z" transform="translate(0.839 6.474)" fill="#0c1949"/>
        <path id="パス_25" data-name="パス 25" d="M11.325,168.033A1.5,1.5,0,0,1,10.1,167.4c-.525-.741-1.038-1.525-1.524-2.329a1.5,1.5,0,0,1,2.567-1.552c.449.742.921,1.464,1.4,2.147a1.5,1.5,0,0,1-1.223,2.367ZM5.691,156.726a1.5,1.5,0,0,1-1.418-1.011c-.537-1.558-1.032-3.207-1.471-4.9a1.5,1.5,0,0,1,2.9-.752c.419,1.618.891,3.191,1.4,4.675a1.5,1.5,0,0,1-1.418,1.989Zm-3.317-14.6a1.5,1.5,0,0,1-1.485-1.3c-.216-1.641-.4-3.34-.533-5.048a1.5,1.5,0,1,1,2.99-.241c.134,1.658.308,3.306.517,4.9a1.5,1.5,0,0,1-1.292,1.683A1.517,1.517,0,0,1,2.374,142.122Zm-.867-14.964H1.489A1.5,1.5,0,0,1,.007,125.64c.036-3.12.195-5.023.2-5.1a1.5,1.5,0,0,1,2.989.253h0c0,.019-.156,1.885-.191,4.884A1.5,1.5,0,0,1,1.507,127.157Z" transform="translate(0.185 14.847)" fill="#0c1949"/>
        <path id="パス_26" data-name="パス 26" d="M69.729,38.815a1.556,1.556,0,0,0-1.882-.057l-13.591,9.7a1.556,1.556,0,0,1-2.448-1.081L48.661,21v0c-.027-.022-8.836-7.3-14.406-11.941a1.549,1.549,0,0,1,.882-2.738C50.977,5.231,111.188,1.1,127.191,0a1.557,1.557,0,0,1,1.24,2.619L85.608,48.677a2.5,2.5,0,0,1-3.4.243L69.729,38.815" transform="translate(4.146 0)" fill="#8de3da"/>
      </g>
    </g>
    <g id="グループ_30" data-name="グループ 30" transform="translate(37.838 -0.001)">
      <g id="グループ_29" data-name="グループ 29" clip-path="url(#clip-path-3)">
        <path id="パス_27" data-name="パス 27" d="M84.015,50.383,69.729,38.815a1.556,1.556,0,0,0-1.882-.057l-13.591,9.7a1.556,1.556,0,0,1-2.448-1.083L48.66,21v0c-.027-.022-8.828-7.3-14.4-11.936a1.553,1.553,0,0,1,.883-2.745C51,5.229,111.19,1.1,127.19,0a1.557,1.557,0,0,1,1.24,2.619L84.021,50.383h-.006" transform="translate(-33.692 0.001)" fill="#3f79cd"/>
        <path id="パス_28" data-name="パス 28" d="M108.242,6.308,60.154,30.663l-9.685,18.75L47.1,20.257,107.628,4.68a.875.875,0,0,1,.613,1.628" transform="translate(-32.042 0.573)" fill="#0c1949"/>
        <g id="グループ_28" data-name="グループ 28" transform="translate(18.426 31.236)" opacity="0.5" style="mix-blend-mode: multiply;isolation: isolate">
          <g id="グループ_27" data-name="グループ 27">
            <g id="グループ_26" data-name="グループ 26" clip-path="url(#clip-path-4)">
              <path id="パス_29" data-name="パス 29" d="M59.784,27.813l8.893,8.362L50.1,46.563Z" transform="translate(-50.1 -27.813)" fill="#3f79cd"/>
            </g>
          </g>
        </g>
      </g>
    </g>
  </g>
</svg>
