<svg xmlns="http://www.w3.org/2000/svg" xmlns:xlink="http://www.w3.org/1999/xlink" width="127.972" height="237.168" viewBox="0 0 127.972 237.168">
  <defs>
    <clipPath id="clip-path">
      <rect id="長方形_45" data-name="長方形 45" width="59.85" height="229.927" fill="none"/>
    </clipPath>
    <clipPath id="clip-path-3">
      <rect id="長方形_43" data-name="長方形 43" width="59.85" height="27.617" transform="translate(0 0)" fill="none"/>
    </clipPath>
  </defs>
  <g id="グループ_39" data-name="グループ 39" transform="matrix(-0.951, 0.309, -0.309, -0.951, 127.972, 218.674)">
    <g id="グループ_38" data-name="グループ 38" transform="translate(0 0)" clip-path="url(#clip-path)">
      <g id="グループ_37" data-name="グループ 37" transform="translate(0 0)">
        <g id="グループ_36" data-name="グループ 36" clip-path="url(#clip-path)">
          <path id="パス_31" data-name="パス 31" d="M5.11.091C2.794-.467.392,1.623.042,3.771a4.731,4.731,0,0,0,3.774,5.06A4.644,4.644,0,0,0,8.822,5.148C9.254,2.781,7.162.113,5.11.091" transform="translate(24.452 135.009)" fill="#f54f59"/>
          <path id="パス_32" data-name="パス 32" d="M8.458,18.983a1.08,1.08,0,0,0,1.231-.3c.343-.371.645-.778.964-1.171.6-.747,1.219-1.487,1.809-2.245a2.034,2.034,0,0,1,1.57-.785c1.11-.077,2.218-.177,3.326-.276a6.035,6.035,0,0,0,.9-.129,1.164,1.164,0,0,0,.762-1.871c-.1-.174-.241-.325-.354-.493-.706-1.048-1.4-2.108-2.121-3.145a1.593,1.593,0,0,1-.251-1.424c.331-1.27.608-2.554.9-3.834a2.833,2.833,0,0,0,.1-.744,1.162,1.162,0,0,0-1.345-1.108,17.87,17.87,0,0,0-1.762.455c-.78.214-1.564.42-2.337.662a2.264,2.264,0,0,1-2.019-.3C8.9,1.667,7.939,1.1,6.988.522A4.761,4.761,0,0,0,6.194.081,1.175,1.175,0,0,0,4.59,1a12.914,12.914,0,0,0-.1,1.513c-.042.858-.121,1.718-.1,2.577A2.285,2.285,0,0,1,3.4,7.156C2.545,7.785,1.769,8.52.963,9.21a6.33,6.33,0,0,0-.675.61,1.2,1.2,0,0,0,.2,1.741,1.613,1.613,0,0,0,.537.272c1.325.355,2.47,1.17,3.809,1.487a1.733,1.733,0,0,1,1.248,1.2c.411,1.086.859,2.161,1.316,3.228.217.511.439,1.039,1.064,1.23" transform="translate(6.756 210.867)" fill="#25bab1"/>
          <path id="パス_33" data-name="パス 33" d="M2.573,4.4a2.072,2.072,0,0,0,.061-.424A10.493,10.493,0,0,0,1.987.71,1.009,1.009,0,0,0,.5.14a.754.754,0,0,0-.5.7A8.226,8.226,0,0,0,.8,4.516c.179.316.4.6.818.573a1.139,1.139,0,0,0,.956-.69" transform="translate(14.344 217.734)" fill="#fff"/>
          <path id="パス_34" data-name="パス 34" d="M.079.961a2.8,2.8,0,0,0,.3,2,.812.812,0,0,0,.812.563.944.944,0,0,0,.9-.692A3.314,3.314,0,0,0,1.945.609a.931.931,0,0,0-.951-.6C.576.052.308.291.079.961" transform="translate(17.84 217.736)" fill="#fff"/>
          <path id="パス_35" data-name="パス 35" d="M0,2.046Q.763,1.056,1.434,0" transform="translate(28.408 203.251)" fill="none" stroke="#fff" stroke-linecap="round" stroke-miterlimit="10" stroke-width="3"/>
          <path id="パス_36" data-name="パス 36" d="M2.868,36.145C6.177,24.623,4.235,10.619,0,0" transform="translate(30.683 158.707)" fill="none" stroke="#fff" stroke-linecap="round" stroke-miterlimit="10" stroke-width="3" stroke-dasharray="4.606 9.213"/>
          <path id="パス_37" data-name="パス 37" d="M1.182,2.2Q.608,1.058,0,0" transform="translate(27.618 152.308)" fill="none" stroke="#fff" stroke-linecap="round" stroke-miterlimit="10" stroke-width="3"/>
          <path id="パス_38" data-name="パス 38" d="M0,1.773S.667,1.165,1.757,0" transform="translate(31.361 120.711)" fill="none" stroke="#fff" stroke-linecap="round" stroke-miterlimit="10" stroke-width="3"/>
          <path id="パス_39" data-name="パス 39" d="M0,51.789C7.248,41.317,15.954,22.878,9.744,0" transform="translate(39.304 61.203)" fill="none" stroke="#fff" stroke-linecap="round" stroke-miterlimit="10" stroke-width="3" stroke-dasharray="4.95 9.901"/>
          <path id="パス_40" data-name="パス 40" d="M.878,2.341Q.465,1.177,0,0" transform="translate(46.691 54.134)" fill="none" stroke="#fff" stroke-linecap="round" stroke-miterlimit="10" stroke-width="3"/>
          <path id="パス_41" data-name="パス 41" d="M59.272,21.947,48.6,2.453A4.721,4.721,0,0,0,42.2.58L2.453,22.335A4.721,4.721,0,0,0,.14,27.617a4.633,4.633,0,0,0,.439,1.122L11.25,48.233a4.719,4.719,0,0,0,6.4,1.873L57.4,28.351a4.721,4.721,0,0,0,1.873-6.4" transform="translate(0 0)" fill="#eb8813"/>
          <g id="グループ_35" data-name="グループ 35" transform="translate(0 0)" opacity="0.35" style="mix-blend-mode: multiply;isolation: isolate">
            <g id="グループ_34" data-name="グループ 34">
              <g id="グループ_33" data-name="グループ 33" clip-path="url(#clip-path-3)">
                <path id="パス_42" data-name="パス 42" d="M59.272,21.947,48.6,2.453A4.721,4.721,0,0,0,42.2.58L2.453,22.335A4.721,4.721,0,0,0,.14,27.617c35-20.257,54.184-7.956,59.7-3.178a4.686,4.686,0,0,0-.573-2.492" transform="translate(0 0)" fill="#c42d52"/>
              </g>
            </g>
          </g>
          <path id="パス_43" data-name="パス 43" d="M0,23.285l14.617-21.7A2.42,2.42,0,0,1,16.575.516L42.541,0" transform="translate(14.362 24.354)" fill="none" stroke="#0c1949" stroke-linecap="round" stroke-miterlimit="10" stroke-width="3"/>
        </g>
      </g>
    </g>
  </g>
</svg>
